<svg width="1280" height="720" viewBox="0 0 1280 720" fill="none" xmlns="http://www.w3.org/2000/svg">
<rect width="1280" height="720" fill="#0E0E1F"/>
<path d="M28.6699 192.624V190.437C29.0664 190.769 29.4971 191.02 29.9619 191.188C30.4268 191.353 30.8962 191.435 31.3701 191.435C31.6481 191.435 31.8896 191.41 32.0947 191.359C32.3044 191.309 32.4775 191.241 32.6143 191.154C32.7555 191.063 32.8604 190.958 32.9287 190.84C32.9971 190.717 33.0312 190.585 33.0312 190.443C33.0312 190.252 32.9766 190.081 32.8672 189.931C32.7578 189.78 32.6074 189.641 32.416 189.514C32.2292 189.386 32.0059 189.263 31.7461 189.145C31.4863 189.026 31.2061 188.905 30.9053 188.782C30.1396 188.463 29.5677 188.074 29.1895 187.613C28.8158 187.153 28.6289 186.597 28.6289 185.945C28.6289 185.435 28.7314 184.997 28.9365 184.633C29.1416 184.264 29.4196 183.961 29.7705 183.724C30.126 183.487 30.5361 183.313 31.001 183.204C31.4658 183.09 31.958 183.033 32.4775 183.033C32.988 183.033 33.4391 183.065 33.8311 183.129C34.2275 183.188 34.5921 183.282 34.9248 183.409V185.453C34.7607 185.339 34.5807 185.239 34.3848 185.152C34.1934 185.066 33.9951 184.995 33.79 184.94C33.585 184.881 33.3799 184.838 33.1748 184.811C32.9743 184.783 32.7829 184.77 32.6006 184.77C32.3499 184.77 32.1221 184.795 31.917 184.845C31.7119 184.89 31.5387 184.956 31.3975 185.043C31.2562 185.13 31.1468 185.234 31.0693 185.357C30.9919 185.476 30.9531 185.61 30.9531 185.761C30.9531 185.925 30.9964 186.073 31.083 186.205C31.1696 186.333 31.2926 186.456 31.4521 186.574C31.6117 186.688 31.8053 186.802 32.0332 186.916C32.2611 187.025 32.5186 187.139 32.8057 187.258C33.1976 187.422 33.5485 187.597 33.8584 187.784C34.1729 187.966 34.4417 188.174 34.665 188.406C34.8883 188.639 35.0592 188.905 35.1777 189.206C35.2962 189.502 35.3555 189.849 35.3555 190.245C35.3555 190.792 35.2507 191.252 35.041 191.626C34.8359 191.995 34.5557 192.296 34.2002 192.528C33.8447 192.756 33.43 192.92 32.9561 193.021C32.4867 193.121 31.9899 193.171 31.4658 193.171C30.9281 193.171 30.4154 193.125 29.9277 193.034C29.4447 192.943 29.0254 192.806 28.6699 192.624ZM40.6328 192.918C40.3138 193.087 39.833 193.171 39.1904 193.171C37.6683 193.171 36.9072 192.38 36.9072 190.799V187.593H35.7725V186H36.9072V184.489L39.0605 183.874V186H40.6328V187.593H39.0605V190.423C39.0605 191.152 39.3499 191.517 39.9287 191.517C40.1566 191.517 40.3913 191.451 40.6328 191.318V192.918ZM46.4229 187.948C46.1631 187.807 45.86 187.736 45.5137 187.736C45.0443 187.736 44.6774 187.91 44.4131 188.256C44.1488 188.598 44.0166 189.065 44.0166 189.657V193H41.8564V186H44.0166V187.299H44.0439C44.3857 186.351 45.001 185.877 45.8896 185.877C46.1175 185.877 46.2952 185.904 46.4229 185.959V187.948ZM53.2588 193H51.2148V191.995H51.1875C50.7181 192.779 50.0231 193.171 49.1025 193.171C48.4235 193.171 47.888 192.979 47.4961 192.597C47.1087 192.209 46.915 191.694 46.915 191.052C46.915 189.694 47.7194 188.91 49.3281 188.7L51.2285 188.447C51.2285 187.682 50.8138 187.299 49.9844 187.299C49.1504 187.299 48.3574 187.547 47.6055 188.044V186.417C47.9062 186.262 48.3164 186.125 48.8359 186.007C49.36 185.888 49.8363 185.829 50.2646 185.829C52.2607 185.829 53.2588 186.825 53.2588 188.816V193ZM51.2285 190.156V189.685L49.957 189.849C49.2552 189.94 48.9043 190.257 48.9043 190.799C48.9043 191.045 48.9886 191.248 49.1572 191.407C49.3304 191.562 49.5628 191.64 49.8545 191.64C50.2601 191.64 50.5905 191.501 50.8457 191.223C51.1009 190.94 51.2285 190.585 51.2285 190.156ZM59.1992 192.918C58.8802 193.087 58.3994 193.171 57.7568 193.171C56.2347 193.171 55.4736 192.38 55.4736 190.799V187.593H54.3389V186H55.4736V184.489L57.627 183.874V186H59.1992V187.593H57.627V190.423C57.627 191.152 57.9163 191.517 58.4951 191.517C58.723 191.517 58.9577 191.451 59.1992 191.318V192.918ZM66.6572 190.115H62.0908C62.1637 191.132 62.804 191.64 64.0117 191.64C64.7819 191.64 65.4587 191.457 66.042 191.093V192.651C65.3949 192.998 64.554 193.171 63.5195 193.171C62.3893 193.171 61.512 192.859 60.8877 192.234C60.2633 191.605 59.9512 190.73 59.9512 189.609C59.9512 188.447 60.2884 187.527 60.9629 186.848C61.6374 186.169 62.4668 185.829 63.4512 185.829C64.472 185.829 65.2604 186.132 65.8164 186.738C66.377 187.344 66.6572 188.167 66.6572 189.206V190.115ZM64.6543 188.789C64.6543 187.786 64.2487 187.285 63.4375 187.285C63.0911 187.285 62.7904 187.429 62.5352 187.716C62.2845 188.003 62.1318 188.361 62.0771 188.789H64.6543ZM74.8057 192.2C74.8057 193.499 74.4297 194.504 73.6777 195.215C72.9258 195.93 71.8366 196.288 70.4102 196.288C69.4668 196.288 68.7194 196.154 68.168 195.885V194.066C68.888 194.486 69.6149 194.695 70.3486 194.695C71.0778 194.695 71.6429 194.502 72.0439 194.114C72.445 193.731 72.6455 193.21 72.6455 192.549V191.995H72.6182C72.126 192.779 71.3991 193.171 70.4375 193.171C69.5443 193.171 68.8356 192.856 68.3115 192.228C67.7874 191.599 67.5254 190.756 67.5254 189.698C67.5254 188.513 67.8171 187.572 68.4004 186.875C68.9837 186.178 69.7516 185.829 70.7041 185.829C71.5563 185.829 72.1943 186.157 72.6182 186.813H72.6455V186H74.8057V192.2ZM72.6729 189.637V189.083C72.6729 188.641 72.5407 188.265 72.2764 187.955C72.0166 187.641 71.6771 187.483 71.2578 187.483C70.7793 187.483 70.4033 187.67 70.1299 188.044C69.8564 188.418 69.7197 188.944 69.7197 189.623C69.7197 190.206 69.8496 190.669 70.1094 191.011C70.3691 191.348 70.7246 191.517 71.1758 191.517C71.6224 191.517 71.9824 191.346 72.2559 191.004C72.5339 190.658 72.6729 190.202 72.6729 189.637ZM77.7041 184.893C77.3395 184.893 77.041 184.785 76.8086 184.571C76.5762 184.353 76.46 184.086 76.46 183.771C76.46 183.448 76.5762 183.184 76.8086 182.979C77.041 182.773 77.3395 182.671 77.7041 182.671C78.0732 182.671 78.3717 182.773 78.5996 182.979C78.832 183.184 78.9482 183.448 78.9482 183.771C78.9482 184.1 78.832 184.368 78.5996 184.578C78.3717 184.788 78.0732 184.893 77.7041 184.893ZM78.7705 193H76.6104V186H78.7705V193ZM85.8936 192.747C85.4059 193.03 84.7018 193.171 83.7812 193.171C82.7057 193.171 81.8353 192.845 81.1699 192.193C80.5046 191.542 80.1719 190.701 80.1719 189.671C80.1719 188.481 80.5273 187.545 81.2383 186.861C81.9538 186.173 82.9085 185.829 84.1025 185.829C84.9274 185.829 85.5244 185.938 85.8936 186.157V187.989C85.4424 187.652 84.9388 187.483 84.3828 187.483C83.763 187.483 83.2708 187.666 82.9062 188.03C82.5462 188.39 82.3662 188.889 82.3662 189.527C82.3662 190.147 82.5394 190.635 82.8857 190.99C83.2321 191.341 83.7083 191.517 84.3145 191.517C84.8522 191.517 85.3786 191.348 85.8936 191.011V192.747ZM93.6045 193H91.3965V183.197H93.6045V193ZM102.389 193H100.235V189.11C100.235 188.026 99.848 187.483 99.0732 187.483C98.6995 187.483 98.3919 187.627 98.1504 187.914C97.9089 188.201 97.7881 188.566 97.7881 189.008V193H95.6279V186H97.7881V187.107H97.8154C98.3304 186.255 99.0801 185.829 100.064 185.829C101.614 185.829 102.389 186.791 102.389 188.714V193ZM105.198 184.893C104.834 184.893 104.535 184.785 104.303 184.571C104.07 184.353 103.954 184.086 103.954 183.771C103.954 183.448 104.07 183.184 104.303 182.979C104.535 182.773 104.834 182.671 105.198 182.671C105.567 182.671 105.866 182.773 106.094 182.979C106.326 183.184 106.442 183.448 106.442 183.771C106.442 184.1 106.326 184.368 106.094 184.578C105.866 184.788 105.567 184.893 105.198 184.893ZM106.265 193H104.104V186H106.265V193ZM112.314 192.918C111.995 193.087 111.515 193.171 110.872 193.171C109.35 193.171 108.589 192.38 108.589 190.799V187.593H107.454V186H108.589V184.489L110.742 183.874V186H112.314V187.593H110.742V190.423C110.742 191.152 111.032 191.517 111.61 191.517C111.838 191.517 112.073 191.451 112.314 191.318V192.918ZM114.632 184.893C114.267 184.893 113.969 184.785 113.736 184.571C113.504 184.353 113.388 184.086 113.388 183.771C113.388 183.448 113.504 183.184 113.736 182.979C113.969 182.773 114.267 182.671 114.632 182.671C115.001 182.671 115.299 182.773 115.527 182.979C115.76 183.184 115.876 183.448 115.876 183.771C115.876 184.1 115.76 184.368 115.527 184.578C115.299 184.788 115.001 184.893 114.632 184.893ZM115.698 193H113.538V186H115.698V193ZM123.341 193H121.297V191.995H121.27C120.8 192.779 120.105 193.171 119.185 193.171C118.506 193.171 117.97 192.979 117.578 192.597C117.191 192.209 116.997 191.694 116.997 191.052C116.997 189.694 117.801 188.91 119.41 188.7L121.311 188.447C121.311 187.682 120.896 187.299 120.066 187.299C119.232 187.299 118.439 187.547 117.688 188.044V186.417C117.988 186.262 118.398 186.125 118.918 186.007C119.442 185.888 119.918 185.829 120.347 185.829C122.343 185.829 123.341 186.825 123.341 188.816V193ZM121.311 190.156V189.685L120.039 189.849C119.337 189.94 118.986 190.257 118.986 190.799C118.986 191.045 119.071 191.248 119.239 191.407C119.412 191.562 119.645 191.64 119.937 191.64C120.342 191.64 120.673 191.501 120.928 191.223C121.183 190.94 121.311 190.585 121.311 190.156ZM129.281 192.918C128.962 193.087 128.481 193.171 127.839 193.171C126.317 193.171 125.556 192.38 125.556 190.799V187.593H124.421V186H125.556V184.489L127.709 183.874V186H129.281V187.593H127.709V190.423C127.709 191.152 127.998 191.517 128.577 191.517C128.805 191.517 129.04 191.451 129.281 191.318V192.918ZM131.599 184.893C131.234 184.893 130.936 184.785 130.703 184.571C130.471 184.353 130.354 184.086 130.354 183.771C130.354 183.448 130.471 183.184 130.703 182.979C130.936 182.773 131.234 182.671 131.599 182.671C131.968 182.671 132.266 182.773 132.494 182.979C132.727 183.184 132.843 183.448 132.843 183.771C132.843 184.1 132.727 184.368 132.494 184.578C132.266 184.788 131.968 184.893 131.599 184.893ZM132.665 193H130.505V186H132.665V193ZM141.148 186L138.544 193H136.083L133.602 186H135.912L137.129 190.313C137.266 190.801 137.345 191.216 137.368 191.558H137.396C137.427 191.234 137.512 190.833 137.648 190.354L138.893 186H141.148ZM148.224 190.115H143.657C143.73 191.132 144.37 191.64 145.578 191.64C146.348 191.64 147.025 191.457 147.608 191.093V192.651C146.961 192.998 146.12 193.171 145.086 193.171C143.956 193.171 143.078 192.859 142.454 192.234C141.83 191.605 141.518 190.73 141.518 189.609C141.518 188.447 141.855 187.527 142.529 186.848C143.204 186.169 144.033 185.829 145.018 185.829C146.038 185.829 146.827 186.132 147.383 186.738C147.943 187.344 148.224 188.167 148.224 189.206V190.115ZM146.221 188.789C146.221 187.786 145.815 187.285 145.004 187.285C144.658 187.285 144.357 187.429 144.102 187.716C143.851 188.003 143.698 188.361 143.644 188.789H146.221ZM149.051 192.815V191.065C149.406 191.28 149.759 191.439 150.11 191.544C150.466 191.649 150.801 191.701 151.115 191.701C151.498 191.701 151.799 191.649 152.018 191.544C152.241 191.439 152.353 191.28 152.353 191.065C152.353 190.929 152.302 190.815 152.202 190.724C152.102 190.632 151.972 190.553 151.812 190.484C151.658 190.416 151.487 190.354 151.3 190.3C151.113 190.245 150.933 190.184 150.76 190.115C150.482 190.01 150.236 189.899 150.021 189.78C149.812 189.657 149.634 189.516 149.488 189.356C149.347 189.197 149.238 189.012 149.16 188.803C149.087 188.593 149.051 188.345 149.051 188.058C149.051 187.666 149.135 187.328 149.304 187.046C149.477 186.763 149.705 186.533 149.987 186.355C150.274 186.173 150.6 186.041 150.965 185.959C151.334 185.872 151.717 185.829 152.113 185.829C152.423 185.829 152.738 185.854 153.057 185.904C153.376 185.95 153.69 186.018 154 186.109V187.777C153.727 187.618 153.433 187.499 153.118 187.422C152.808 187.34 152.503 187.299 152.202 187.299C152.061 187.299 151.926 187.312 151.799 187.34C151.676 187.363 151.566 187.399 151.471 187.449C151.375 187.495 151.3 187.556 151.245 187.634C151.19 187.707 151.163 187.791 151.163 187.887C151.163 188.014 151.204 188.124 151.286 188.215C151.368 188.306 151.475 188.386 151.607 188.454C151.74 188.518 151.885 188.577 152.045 188.632C152.209 188.682 152.371 188.734 152.53 188.789C152.817 188.889 153.077 188.999 153.31 189.117C153.542 189.236 153.74 189.375 153.904 189.534C154.073 189.694 154.201 189.881 154.287 190.095C154.378 190.309 154.424 190.564 154.424 190.86C154.424 191.275 154.333 191.631 154.15 191.927C153.973 192.218 153.733 192.458 153.433 192.645C153.136 192.827 152.792 192.959 152.4 193.041C152.013 193.128 151.61 193.171 151.19 193.171C150.42 193.171 149.707 193.052 149.051 192.815Z" fill="white"/>
<rect x="12" y="166" width="836" height="270" rx="5" fill="#1D1D30"/>
<rect x="12" y="166" width="836" height="270" rx="5" fill="#1D1D30"/>
<rect x="12" y="444" width="628" height="264" rx="5" fill="#1D1D30"/>
<rect x="856" y="166" width="412" height="270" rx="5" fill="#1D1D30"/>
<path d="M661.488 470.995V468.808C661.885 469.14 662.315 469.391 662.78 469.56C663.245 469.724 663.715 469.806 664.188 469.806C664.466 469.806 664.708 469.781 664.913 469.73C665.123 469.68 665.296 469.612 665.433 469.525C665.574 469.434 665.679 469.329 665.747 469.211C665.815 469.088 665.85 468.956 665.85 468.814C665.85 468.623 665.795 468.452 665.686 468.302C665.576 468.151 665.426 468.012 665.234 467.885C665.048 467.757 664.824 467.634 664.564 467.516C664.305 467.397 664.024 467.276 663.724 467.153C662.958 466.834 662.386 466.445 662.008 465.984C661.634 465.524 661.447 464.968 661.447 464.316C661.447 463.806 661.55 463.368 661.755 463.004C661.96 462.635 662.238 462.332 662.589 462.095C662.944 461.858 663.354 461.685 663.819 461.575C664.284 461.461 664.776 461.404 665.296 461.404C665.806 461.404 666.257 461.436 666.649 461.5C667.046 461.559 667.41 461.653 667.743 461.78V463.824C667.579 463.71 667.399 463.61 667.203 463.523C667.012 463.437 666.813 463.366 666.608 463.312C666.403 463.252 666.198 463.209 665.993 463.182C665.793 463.154 665.601 463.141 665.419 463.141C665.168 463.141 664.94 463.166 664.735 463.216C664.53 463.261 664.357 463.327 664.216 463.414C664.075 463.501 663.965 463.605 663.888 463.729C663.81 463.847 663.771 463.981 663.771 464.132C663.771 464.296 663.815 464.444 663.901 464.576C663.988 464.704 664.111 464.827 664.271 464.945C664.43 465.059 664.624 465.173 664.852 465.287C665.079 465.396 665.337 465.51 665.624 465.629C666.016 465.793 666.367 465.968 666.677 466.155C666.991 466.338 667.26 466.545 667.483 466.777C667.707 467.01 667.878 467.276 667.996 467.577C668.115 467.873 668.174 468.22 668.174 468.616C668.174 469.163 668.069 469.623 667.859 469.997C667.654 470.366 667.374 470.667 667.019 470.899C666.663 471.127 666.248 471.291 665.774 471.392C665.305 471.492 664.808 471.542 664.284 471.542C663.746 471.542 663.234 471.496 662.746 471.405C662.263 471.314 661.844 471.177 661.488 470.995ZM673.451 471.289C673.132 471.458 672.651 471.542 672.009 471.542C670.487 471.542 669.726 470.751 669.726 469.17V465.964H668.591V464.371H669.726V462.86L671.879 462.245V464.371H673.451V465.964H671.879V468.794C671.879 469.523 672.168 469.888 672.747 469.888C672.975 469.888 673.21 469.822 673.451 469.689V471.289ZM679.241 466.319C678.981 466.178 678.678 466.107 678.332 466.107C677.863 466.107 677.496 466.281 677.231 466.627C676.967 466.969 676.835 467.436 676.835 468.028V471.371H674.675V464.371H676.835V465.67H676.862C677.204 464.722 677.819 464.248 678.708 464.248C678.936 464.248 679.114 464.275 679.241 464.33V466.319ZM686.077 471.371H684.033V470.366H684.006C683.536 471.15 682.841 471.542 681.921 471.542C681.242 471.542 680.706 471.351 680.314 470.968C679.927 470.58 679.733 470.065 679.733 469.423C679.733 468.065 680.538 467.281 682.146 467.071L684.047 466.818C684.047 466.053 683.632 465.67 682.803 465.67C681.969 465.67 681.176 465.918 680.424 466.415V464.788C680.725 464.633 681.135 464.496 681.654 464.378C682.178 464.259 682.655 464.2 683.083 464.2C685.079 464.2 686.077 465.196 686.077 467.188V471.371ZM684.047 468.527V468.056L682.775 468.22C682.074 468.311 681.723 468.628 681.723 469.17C681.723 469.416 681.807 469.619 681.976 469.778C682.149 469.933 682.381 470.011 682.673 470.011C683.078 470.011 683.409 469.872 683.664 469.594C683.919 469.311 684.047 468.956 684.047 468.527ZM692.018 471.289C691.699 471.458 691.218 471.542 690.575 471.542C689.053 471.542 688.292 470.751 688.292 469.17V465.964H687.157V464.371H688.292V462.86L690.445 462.245V464.371H692.018V465.964H690.445V468.794C690.445 469.523 690.735 469.888 691.313 469.888C691.541 469.888 691.776 469.822 692.018 469.689V471.289ZM699.476 468.486H694.909C694.982 469.503 695.622 470.011 696.83 470.011C697.6 470.011 698.277 469.828 698.86 469.464V471.022C698.213 471.369 697.372 471.542 696.338 471.542C695.208 471.542 694.33 471.23 693.706 470.605C693.082 469.977 692.77 469.102 692.77 467.98C692.77 466.818 693.107 465.898 693.781 465.219C694.456 464.54 695.285 464.2 696.27 464.2C697.29 464.2 698.079 464.503 698.635 465.109C699.195 465.715 699.476 466.538 699.476 467.577V468.486ZM697.473 467.16C697.473 466.158 697.067 465.656 696.256 465.656C695.91 465.656 695.609 465.8 695.354 466.087C695.103 466.374 694.95 466.732 694.896 467.16H697.473ZM707.624 470.571C707.624 471.87 707.248 472.875 706.496 473.586C705.744 474.301 704.655 474.659 703.229 474.659C702.285 474.659 701.538 474.525 700.986 474.256V472.438C701.706 472.857 702.433 473.066 703.167 473.066C703.896 473.066 704.461 472.873 704.862 472.485C705.263 472.103 705.464 471.581 705.464 470.92V470.366H705.437C704.944 471.15 704.217 471.542 703.256 471.542C702.363 471.542 701.654 471.228 701.13 470.599C700.606 469.97 700.344 469.127 700.344 468.069C700.344 466.884 700.635 465.943 701.219 465.246C701.802 464.549 702.57 464.2 703.522 464.2C704.375 464.2 705.013 464.528 705.437 465.185H705.464V464.371H707.624V470.571ZM705.491 468.008V467.454C705.491 467.012 705.359 466.636 705.095 466.326C704.835 466.012 704.495 465.854 704.076 465.854C703.598 465.854 703.222 466.041 702.948 466.415C702.675 466.789 702.538 467.315 702.538 467.994C702.538 468.577 702.668 469.04 702.928 469.382C703.188 469.719 703.543 469.888 703.994 469.888C704.441 469.888 704.801 469.717 705.074 469.375C705.352 469.029 705.491 468.573 705.491 468.008ZM710.522 463.264C710.158 463.264 709.859 463.157 709.627 462.942C709.395 462.724 709.278 462.457 709.278 462.143C709.278 461.819 709.395 461.555 709.627 461.35C709.859 461.145 710.158 461.042 710.522 461.042C710.892 461.042 711.19 461.145 711.418 461.35C711.65 461.555 711.767 461.819 711.767 462.143C711.767 462.471 711.65 462.74 711.418 462.949C711.19 463.159 710.892 463.264 710.522 463.264ZM711.589 471.371H709.429V464.371H711.589V471.371ZM718.712 471.118C718.224 471.401 717.52 471.542 716.6 471.542C715.524 471.542 714.654 471.216 713.988 470.564C713.323 469.913 712.99 469.072 712.99 468.042C712.99 466.853 713.346 465.916 714.057 465.232C714.772 464.544 715.727 464.2 716.921 464.2C717.746 464.2 718.343 464.31 718.712 464.528V466.36C718.261 466.023 717.757 465.854 717.201 465.854C716.581 465.854 716.089 466.037 715.725 466.401C715.365 466.761 715.185 467.26 715.185 467.898C715.185 468.518 715.358 469.006 715.704 469.361C716.05 469.712 716.527 469.888 717.133 469.888C717.671 469.888 718.197 469.719 718.712 469.382V471.118ZM726.423 471.371H724.215V461.568H726.423V471.371ZM735.207 471.371H733.054V467.481C733.054 466.397 732.666 465.854 731.892 465.854C731.518 465.854 731.21 465.998 730.969 466.285C730.727 466.572 730.606 466.937 730.606 467.379V471.371H728.446V464.371H730.606V465.479H730.634C731.149 464.626 731.898 464.2 732.883 464.2C734.432 464.2 735.207 465.162 735.207 467.085V471.371ZM738.017 463.264C737.652 463.264 737.354 463.157 737.121 462.942C736.889 462.724 736.772 462.457 736.772 462.143C736.772 461.819 736.889 461.555 737.121 461.35C737.354 461.145 737.652 461.042 738.017 461.042C738.386 461.042 738.684 461.145 738.912 461.35C739.145 461.555 739.261 461.819 739.261 462.143C739.261 462.471 739.145 462.74 738.912 462.949C738.684 463.159 738.386 463.264 738.017 463.264ZM739.083 471.371H736.923V464.371H739.083V471.371ZM745.133 471.289C744.814 471.458 744.333 471.542 743.69 471.542C742.168 471.542 741.407 470.751 741.407 469.17V465.964H740.272V464.371H741.407V462.86L743.561 462.245V464.371H745.133V465.964H743.561V468.794C743.561 469.523 743.85 469.888 744.429 469.888C744.657 469.888 744.891 469.822 745.133 469.689V471.289ZM747.45 463.264C747.086 463.264 746.787 463.157 746.555 462.942C746.322 462.724 746.206 462.457 746.206 462.143C746.206 461.819 746.322 461.555 746.555 461.35C746.787 461.145 747.086 461.042 747.45 461.042C747.819 461.042 748.118 461.145 748.346 461.35C748.578 461.555 748.694 461.819 748.694 462.143C748.694 462.471 748.578 462.74 748.346 462.949C748.118 463.159 747.819 463.264 747.45 463.264ZM748.517 471.371H746.356V464.371H748.517V471.371ZM756.159 471.371H754.115V470.366H754.088C753.618 471.15 752.924 471.542 752.003 471.542C751.324 471.542 750.788 471.351 750.396 470.968C750.009 470.58 749.815 470.065 749.815 469.423C749.815 468.065 750.62 467.281 752.229 467.071L754.129 466.818C754.129 466.053 753.714 465.67 752.885 465.67C752.051 465.67 751.258 465.918 750.506 466.415V464.788C750.807 464.633 751.217 464.496 751.736 464.378C752.26 464.259 752.737 464.2 753.165 464.2C755.161 464.2 756.159 465.196 756.159 467.188V471.371ZM754.129 468.527V468.056L752.857 468.22C752.156 468.311 751.805 468.628 751.805 469.17C751.805 469.416 751.889 469.619 752.058 469.778C752.231 469.933 752.463 470.011 752.755 470.011C753.16 470.011 753.491 469.872 753.746 469.594C754.001 469.311 754.129 468.956 754.129 468.527ZM762.1 471.289C761.781 471.458 761.3 471.542 760.657 471.542C759.135 471.542 758.374 470.751 758.374 469.17V465.964H757.239V464.371H758.374V462.86L760.527 462.245V464.371H762.1V465.964H760.527V468.794C760.527 469.523 760.817 469.888 761.396 469.888C761.623 469.888 761.858 469.822 762.1 469.689V471.289ZM764.417 463.264C764.052 463.264 763.754 463.157 763.521 462.942C763.289 462.724 763.173 462.457 763.173 462.143C763.173 461.819 763.289 461.555 763.521 461.35C763.754 461.145 764.052 461.042 764.417 461.042C764.786 461.042 765.085 461.145 765.312 461.35C765.545 461.555 765.661 461.819 765.661 462.143C765.661 462.471 765.545 462.74 765.312 462.949C765.085 463.159 764.786 463.264 764.417 463.264ZM765.483 471.371H763.323V464.371H765.483V471.371ZM773.967 464.371L771.362 471.371H768.901L766.42 464.371H768.73L769.947 468.685C770.084 469.172 770.164 469.587 770.187 469.929H770.214C770.246 469.605 770.33 469.204 770.467 468.726L771.711 464.371H773.967ZM781.042 468.486H776.476C776.549 469.503 777.189 470.011 778.396 470.011C779.167 470.011 779.843 469.828 780.427 469.464V471.022C779.78 471.369 778.939 471.542 777.904 471.542C776.774 471.542 775.897 471.23 775.272 470.605C774.648 469.977 774.336 469.102 774.336 467.98C774.336 466.818 774.673 465.898 775.348 465.219C776.022 464.54 776.852 464.2 777.836 464.2C778.857 464.2 779.645 464.503 780.201 465.109C780.762 465.715 781.042 466.538 781.042 467.577V468.486ZM779.039 467.16C779.039 466.158 778.633 465.656 777.822 465.656C777.476 465.656 777.175 465.8 776.92 466.087C776.669 466.374 776.517 466.732 776.462 467.16H779.039ZM781.869 471.187V469.437C782.225 469.651 782.578 469.81 782.929 469.915C783.284 470.02 783.619 470.072 783.934 470.072C784.316 470.072 784.617 470.02 784.836 469.915C785.059 469.81 785.171 469.651 785.171 469.437C785.171 469.3 785.121 469.186 785.021 469.095C784.92 469.004 784.79 468.924 784.631 468.855C784.476 468.787 784.305 468.726 784.118 468.671C783.931 468.616 783.751 468.555 783.578 468.486C783.3 468.382 783.054 468.27 782.84 468.151C782.63 468.028 782.452 467.887 782.307 467.728C782.165 467.568 782.056 467.383 781.979 467.174C781.906 466.964 781.869 466.716 781.869 466.429C781.869 466.037 781.953 465.7 782.122 465.417C782.295 465.134 782.523 464.904 782.806 464.727C783.093 464.544 783.419 464.412 783.783 464.33C784.152 464.243 784.535 464.2 784.932 464.2C785.242 464.2 785.556 464.225 785.875 464.275C786.194 464.321 786.508 464.389 786.818 464.48V466.148C786.545 465.989 786.251 465.87 785.937 465.793C785.627 465.711 785.321 465.67 785.021 465.67C784.879 465.67 784.745 465.684 784.617 465.711C784.494 465.734 784.385 465.77 784.289 465.82C784.193 465.866 784.118 465.927 784.063 466.005C784.009 466.078 783.981 466.162 783.981 466.258C783.981 466.385 784.022 466.495 784.104 466.586C784.187 466.677 784.294 466.757 784.426 466.825C784.558 466.889 784.704 466.948 784.863 467.003C785.027 467.053 785.189 467.105 785.349 467.16C785.636 467.26 785.896 467.37 786.128 467.488C786.36 467.607 786.559 467.746 786.723 467.905C786.891 468.065 787.019 468.252 787.105 468.466C787.197 468.68 787.242 468.935 787.242 469.231C787.242 469.646 787.151 470.002 786.969 470.298C786.791 470.59 786.552 470.829 786.251 471.016C785.955 471.198 785.611 471.33 785.219 471.412C784.831 471.499 784.428 471.542 784.009 471.542C783.239 471.542 782.525 471.424 781.869 471.187Z" fill="white"/>
<rect x="645" y="444" width="623" height="264" rx="5" fill="#1D1D30"/>
<rect x="12" y="78" width="1256" height="80" rx="5" fill="#1D1D30"/>
<path d="M59.161 48.7906V46.4689L68.3493 34.7804L68.9901 36.0415H59.3265V33.1049H71.7827V35.4266L62.5944 47.115L61.8984 45.854H72.033V48.7906H59.161Z" fill="white"/>
<path d="M81.3316 49C79.6765 49 78.2293 48.6524 76.99 47.9573C75.7508 47.2621 74.7916 46.3085 74.1126 45.092C73.4336 43.8799 73.094 42.4985 73.094 40.9522C73.094 39.4059 73.4251 38.0022 74.0871 36.7946C74.7492 35.5915 75.6617 34.6467 76.8245 33.9605C77.9874 33.2743 79.3157 32.9311 80.8054 32.9311C82.295 32.9311 83.5512 33.2653 84.6886 33.9293C85.826 34.5933 86.7173 35.5335 87.3708 36.75C88.0202 37.9621 88.347 39.3925 88.347 41.0369C88.347 41.1928 88.3427 41.3711 88.3342 41.5671C88.3257 41.7632 88.3088 41.9504 88.2918 42.1242H75.8654V39.6867H86.4499L85.0833 40.4487C85.1003 39.5485 84.9263 38.7553 84.5528 38.0691C84.1794 37.3828 83.6743 36.8436 83.0292 36.4515C82.3884 36.0593 81.6457 35.8633 80.8096 35.8633C79.9736 35.8633 79.2054 36.0593 78.5603 36.4515C77.9195 36.8436 77.4144 37.3873 77.0537 38.0824C76.6887 38.7776 76.5105 39.5931 76.5105 40.5333V41.1215C76.5105 42.0618 76.7142 42.8951 77.1258 43.617C77.5333 44.3433 78.1104 44.9003 78.8574 45.2925C79.6001 45.6846 80.4574 45.8807 81.425 45.8807C82.2611 45.8807 83.0165 45.7426 83.6871 45.4707C84.3576 45.1989 84.9518 44.7667 85.4738 44.1784L87.3454 46.4422C86.6748 47.2666 85.8345 47.8949 84.8202 48.336C83.8059 48.7772 82.6473 48.9955 81.3444 48.9955L81.3316 49Z" fill="white"/>
<path d="M90.9952 48.7906V27H94.4838V36.75L94.2037 40.921L94.314 45.092V48.7906H90.991H90.9952ZM99.2625 48.9955C97.9978 48.9955 96.8689 48.7014 95.8843 48.1132C94.8954 47.525 94.1188 46.6382 93.5543 45.4574C92.9856 44.272 92.7013 42.7703 92.7013 40.9477C92.7013 39.1252 92.9941 37.6012 93.5798 36.4248C94.1655 35.2483 94.9591 34.3749 95.9522 33.7956C96.9495 33.2163 98.053 32.9311 99.2625 32.9311C100.731 32.9311 102.03 33.2653 103.159 33.9293C104.283 34.5933 105.179 35.5246 105.841 36.7189C106.503 37.9131 106.834 39.3212 106.834 40.9477C106.834 42.5742 106.503 43.9824 105.841 45.1766C105.179 46.3709 104.287 47.3067 103.159 47.9795C102.034 48.6569 100.735 48.9911 99.2625 48.9911V48.9955ZM98.8721 45.854C99.7081 45.854 100.459 45.6579 101.121 45.2657C101.783 44.8736 102.31 44.3077 102.7 43.5635C103.091 42.8193 103.286 41.9459 103.286 40.9477C103.286 39.9496 103.091 39.0539 102.7 38.3186C102.31 37.5833 101.783 37.0219 101.121 36.6297C100.459 36.2376 99.7124 36.0415 98.8721 36.0415C98.0318 36.0415 97.2806 36.2376 96.61 36.6297C95.9395 37.0219 95.409 37.5833 95.0185 38.3186C94.6281 39.0539 94.4328 39.9273 94.4328 40.9477C94.4328 41.9682 94.6281 42.8193 95.0185 43.5635C95.409 44.3077 95.9395 44.8736 96.61 45.2657C97.2806 45.6579 98.036 45.854 98.8721 45.854Z" fill="white"/>
<path d="M35.7941 27C35.8025 27 35.811 27 35.8153 27C35.8153 27 35.8153 27 35.8195 27C36.5877 27.0223 37.2455 27.4991 37.5553 28.1853L40.0465 32.7217L42.542 28.1764C42.542 28.1764 42.5463 28.1675 42.5505 28.1586C42.5505 28.1586 42.5505 28.1541 42.5547 28.1497C42.5547 28.1497 42.5547 28.1408 42.559 28.1408C42.559 28.1408 42.559 28.1363 42.5632 28.1319C42.5632 28.1274 42.5675 28.1229 42.5717 28.114C42.5717 28.114 42.5717 28.1096 42.576 28.1051C42.576 28.1051 42.576 28.1007 42.5802 28.0962C42.5802 28.0962 42.5802 28.0918 42.5845 28.0873C42.5845 28.0828 42.5887 28.0784 42.5929 28.0739C42.5929 28.0739 42.5929 28.0695 42.5972 28.065C42.5972 28.065 42.5972 28.0606 42.6014 28.0561C42.6014 28.0561 42.6014 28.0517 42.6057 28.0472C42.6057 28.0472 42.6099 28.0383 42.6142 28.0338C42.6142 28.0338 42.6184 28.0249 42.6226 28.0205C42.6226 28.0205 42.6226 28.016 42.6269 28.0115C42.6269 28.0115 42.6269 28.0071 42.6311 28.0026C42.6311 28.0026 42.6311 27.9937 42.6354 27.9937C42.6354 27.9893 42.6396 27.9848 42.6439 27.9804C42.6439 27.9804 42.6439 27.9759 42.6481 27.9714C42.6481 27.9714 42.6481 27.967 42.6524 27.9625C42.6524 27.9625 42.6524 27.9581 42.6566 27.9536C42.6566 27.9492 42.6608 27.9447 42.6651 27.9402C42.6651 27.9402 42.6693 27.9313 42.6736 27.9313C42.6736 27.9313 42.6736 27.9269 42.6778 27.9224C42.6778 27.9224 42.6778 27.918 42.6821 27.9135C42.6821 27.9135 42.6863 27.9046 42.6906 27.9001C42.6906 27.9001 42.6948 27.8912 42.699 27.8868C42.699 27.8868 42.699 27.8823 42.7033 27.8779C42.7033 27.8779 42.7033 27.8734 42.7075 27.8689C42.7075 27.8689 42.7075 27.8645 42.7118 27.86C42.7118 27.8556 42.7203 27.8511 42.7203 27.8467C42.7203 27.8467 42.7245 27.8422 42.7287 27.8378C42.7287 27.8378 42.7287 27.8333 42.733 27.8288C42.733 27.8288 42.7372 27.8244 42.7415 27.8199C42.7415 27.8199 42.75 27.811 42.75 27.8066C42.75 27.8066 42.7542 27.8021 42.7585 27.7977C42.7585 27.7977 42.7585 27.7932 42.7627 27.7887C42.7627 27.7887 42.7669 27.7843 42.7712 27.7798C42.7712 27.7798 42.7754 27.7754 42.7797 27.7709C42.7797 27.7665 42.7882 27.762 42.7924 27.7575C42.7924 27.7575 42.7924 27.7531 42.7967 27.7486C42.7967 27.7486 42.8009 27.7442 42.8051 27.7397C42.8051 27.7397 42.8051 27.7353 42.8094 27.7308C42.8094 27.7264 42.8179 27.7219 42.8221 27.7174C42.8221 27.7174 42.8221 27.713 42.8264 27.7085C42.8264 27.7085 42.8306 27.7041 42.8348 27.6996C42.8348 27.6996 42.8348 27.6952 42.8391 27.6907C42.8391 27.6862 42.8476 27.6818 42.8518 27.6773C42.8518 27.6773 42.8518 27.6729 42.8561 27.6684C42.8561 27.6684 42.8603 27.664 42.8646 27.6595C42.8646 27.6595 42.8646 27.6595 42.8688 27.6551C42.873 27.6506 42.8773 27.6461 42.8815 27.6417C42.8815 27.6417 42.8815 27.6417 42.8858 27.6372C42.8858 27.6372 42.89 27.6328 42.8943 27.6283C42.8943 27.6283 42.8943 27.6283 42.8985 27.6239C42.9028 27.6194 42.907 27.6149 42.9112 27.6105C42.9112 27.6105 42.9112 27.6105 42.9155 27.606C42.9155 27.606 42.9197 27.6016 42.924 27.5971C42.924 27.5971 42.924 27.5971 42.9282 27.5927C42.9282 27.5927 42.9325 27.5882 42.9367 27.5838C42.9409 27.5793 42.9494 27.5704 42.9537 27.5659C42.9537 27.5659 42.9537 27.5659 42.9579 27.5615C42.9579 27.5615 42.9622 27.557 42.9664 27.5526C42.9664 27.5526 42.9664 27.5526 42.9707 27.5526C42.9749 27.5481 42.9834 27.5437 42.9876 27.5347C42.9876 27.5347 42.9876 27.5347 42.9919 27.5303C42.9919 27.5303 42.9961 27.5258 43.0004 27.5214C43.0004 27.5214 43.0004 27.5214 43.0046 27.5214C43.0089 27.5169 43.0173 27.5125 43.0216 27.508C43.0216 27.508 43.0216 27.508 43.0258 27.508C43.0258 27.508 43.0343 27.5035 43.0343 27.4991C43.0343 27.4991 43.0343 27.4991 43.0386 27.4991C43.0428 27.4946 43.0513 27.4902 43.0555 27.4857C43.0555 27.4857 43.0555 27.4857 43.0598 27.4857C43.0598 27.4857 43.0683 27.4813 43.0683 27.4768C43.0683 27.4768 43.0683 27.4768 43.0725 27.4768C43.081 27.4724 43.0852 27.4679 43.0937 27.459C43.0937 27.459 43.1022 27.4545 43.1065 27.4501C43.1065 27.4501 43.1065 27.4501 43.1107 27.4501C43.1234 27.4412 43.1319 27.4322 43.1447 27.4233C43.1447 27.4233 43.1447 27.4233 43.1489 27.4233C43.1616 27.4144 43.1744 27.4055 43.1829 27.3966C43.1956 27.3877 43.2083 27.3788 43.2211 27.3699C43.2211 27.3699 43.2295 27.3654 43.2338 27.3609C43.2423 27.3565 43.2508 27.352 43.2592 27.3431C43.2635 27.3431 43.2677 27.3387 43.272 27.3342C43.2805 27.3298 43.289 27.3253 43.2974 27.3208C43.3017 27.3208 43.3059 27.3164 43.3102 27.3119C43.3229 27.303 43.3356 27.2986 43.3526 27.2896C43.3653 27.2807 43.3781 27.2763 43.3951 27.2674C43.4078 27.2585 43.4248 27.254 43.4375 27.2451C43.4502 27.2362 43.4672 27.2317 43.4799 27.2228C43.4927 27.2184 43.5096 27.2094 43.5224 27.205C43.5733 27.1827 43.6242 27.1649 43.6794 27.1471C43.6964 27.1426 43.7091 27.1381 43.7261 27.1337C43.7431 27.1292 43.76 27.1248 43.7728 27.1203C43.8746 27.0936 43.9807 27.0758 44.0911 27.0668C44.0911 27.0668 44.125 27.0668 44.142 27.0668C44.142 27.0668 44.159 27.0668 44.1675 27.0668C44.1675 27.0668 44.1844 27.0668 44.1929 27.0668C44.1929 27.0668 44.2099 27.0668 44.2184 27.0668C44.2269 27.0668 44.2354 27.0668 44.2439 27.0668C44.2439 27.0668 44.2481 27.0668 44.2523 27.0668H35.6964C35.6964 27.0668 35.7134 27.0668 35.7219 27.0668L35.7941 27Z" fill="#717D7A"/>
<path d="M47.5202 46.6605C47.482 46.3397 47.3759 46.0456 47.2189 45.7871L37.5596 28.1853C37.2455 27.4991 36.5877 27.0223 35.8238 27C35.8238 27 35.8238 27 35.8195 27C35.811 27 35.8025 27 35.7983 27C35.7983 27 35.7813 27 35.7728 27C35.7728 27 35.7686 27 35.7644 27C35.7304 27 35.6964 27 35.6625 27C34.924 27.0446 34.2959 27.5125 33.9904 28.1764L24.3183 45.7827C24.1485 46.0545 24.0424 46.3709 24.0085 46.714C24.0085 46.714 24.0085 46.7184 24.0085 46.7229C24.0085 46.7229 24.0085 46.7318 24.0085 46.7363C24.0042 46.7987 24 46.861 24 46.919C24 46.919 24 46.9234 24 46.9279V46.9368C24.0042 47.5874 24.2928 48.1667 24.7427 48.5455C25.027 48.7861 25.3793 48.951 25.7782 48.9911C25.7825 48.9911 25.791 48.9911 25.7952 48.9911C25.8504 48.9955 25.9056 49 25.9607 49C25.9607 49 25.9692 49 25.9735 49C25.9735 49 25.9735 49 25.9777 49H45.5468C45.5468 49 45.551 49 45.5553 49H45.5637C45.6147 49 45.6656 49 45.7165 48.9911C45.7165 48.9911 45.7208 48.9911 45.725 48.9911C46.1367 48.951 46.5017 48.7816 46.7945 48.5321C47.2231 48.1622 47.5032 47.6097 47.5245 46.9858C47.5245 46.8789 47.5245 46.7675 47.5117 46.6561L47.5202 46.6605Z" fill="#3B4240"/>
<path d="M56.0804 46.6605C56.0422 46.3397 55.9361 46.0456 55.779 45.7871L46.1155 28.1853C45.8099 27.5125 45.1733 27.0401 44.4306 27C44.4263 27 44.4179 27 44.4094 27H44.4009C44.4009 27 44.3882 27 44.3797 27C44.3797 27 44.3797 27 44.3754 27C44.3754 27 44.3712 27 44.3669 27C44.3627 27 44.3542 27 44.35 27C44.3415 27 44.333 27 44.3245 27C44.3245 27 44.3202 27 44.316 27C44.316 27 44.299 27 44.2905 27C44.2821 27 44.2736 27 44.2651 27C44.2651 27 44.2481 27 44.2396 27C44.2396 27 44.2226 27 44.2141 27C44.1972 27 44.1802 27 44.1632 27C44.0529 27.0089 43.9468 27.0267 43.8449 27.0535C43.8279 27.0535 43.811 27.0624 43.7982 27.0668C43.7813 27.0713 43.7643 27.0758 43.7516 27.0802C43.7006 27.098 43.6455 27.1159 43.5945 27.1381C43.5775 27.1426 43.5648 27.1515 43.5521 27.156C43.5394 27.1604 43.5224 27.1693 43.5096 27.1782C43.4969 27.1872 43.4799 27.1916 43.4672 27.2005C43.4545 27.2094 43.4375 27.2139 43.4248 27.2228C43.412 27.2317 43.3993 27.2362 43.3823 27.2451C43.3781 27.2451 43.3738 27.2495 43.3696 27.254C43.3696 27.254 43.3526 27.2674 43.3441 27.2718C43.3399 27.2718 43.3356 27.2763 43.3314 27.2807C43.3229 27.2852 43.3144 27.2896 43.3059 27.2986C43.3059 27.2986 43.2974 27.303 43.2932 27.3075C43.2805 27.3164 43.2677 27.3253 43.255 27.3342C43.2423 27.3431 43.2295 27.352 43.2211 27.3609C43.2211 27.3609 43.2211 27.3609 43.2168 27.3609C43.2041 27.3699 43.1956 27.3788 43.1829 27.3877C43.1829 27.3877 43.1829 27.3877 43.1786 27.3877C43.1786 27.3877 43.1701 27.3921 43.1659 27.3966C43.1574 27.4011 43.1531 27.4055 43.1447 27.4144C43.1447 27.4144 43.1447 27.4144 43.1404 27.4144C43.1404 27.4144 43.1319 27.4189 43.1319 27.4233C43.1319 27.4233 43.1319 27.4233 43.1277 27.4233C43.1234 27.4278 43.115 27.4322 43.1107 27.4367C43.1107 27.4367 43.1107 27.4367 43.1065 27.4367C43.1065 27.4367 43.098 27.4412 43.098 27.4456C43.098 27.4456 43.098 27.4456 43.0937 27.4456C43.0895 27.4501 43.081 27.4545 43.0768 27.459C43.0768 27.459 43.0768 27.459 43.0725 27.459C43.0725 27.459 43.064 27.4634 43.064 27.4679C43.064 27.4679 43.064 27.4679 43.0598 27.4724C43.0555 27.4768 43.047 27.4813 43.0428 27.4902C43.0428 27.4902 43.0428 27.4902 43.0386 27.4902C43.0386 27.4902 43.0343 27.4946 43.0301 27.4991C43.0301 27.4991 43.0301 27.4991 43.0258 27.5035C43.0216 27.508 43.0131 27.5169 43.0089 27.5214C43.0089 27.5214 43.0046 27.5258 43.0004 27.5303H42.9961C42.9961 27.5303 42.9919 27.5436 42.9876 27.5436C42.9876 27.5436 42.9876 27.5436 42.9834 27.5481C42.9791 27.5526 42.9749 27.557 42.9707 27.5615H42.9664C42.9664 27.5615 42.9622 27.5748 42.9579 27.5748C42.9579 27.5748 42.9579 27.5748 42.9537 27.5793C42.9494 27.5838 42.9452 27.5882 42.9409 27.5927C42.9409 27.5927 42.9409 27.5927 42.9367 27.5971C42.9367 27.5971 42.9325 27.6016 42.9282 27.606C42.9282 27.606 42.9282 27.6105 42.924 27.6149C42.924 27.6194 42.9155 27.6239 42.9112 27.6283C42.9112 27.6283 42.9112 27.6328 42.907 27.6372C42.907 27.6372 42.9028 27.6417 42.8985 27.6461C42.8985 27.6461 42.8985 27.6506 42.8943 27.6551C42.8943 27.6595 42.8858 27.664 42.8815 27.6684C42.8815 27.6684 42.8815 27.6729 42.8773 27.6773C42.8773 27.6773 42.873 27.6818 42.8688 27.6862C42.8688 27.6862 42.8688 27.6907 42.8646 27.6952C42.8646 27.6996 42.8561 27.7041 42.8518 27.7085C42.8518 27.7085 42.8476 27.713 42.8433 27.7174C42.8433 27.7174 42.8391 27.7219 42.8348 27.7264C42.8348 27.7264 42.8348 27.7308 42.8306 27.7353C42.8306 27.7353 42.8264 27.7397 42.8221 27.7442C42.8221 27.7442 42.8136 27.7531 42.8136 27.7575L42.8051 27.7665C42.8051 27.7665 42.8051 27.7709 42.8009 27.7754C42.8009 27.7754 42.7967 27.7798 42.7924 27.7843C42.7924 27.7887 42.7839 27.7932 42.7839 27.7977C42.7839 27.7977 42.7839 27.8021 42.7797 27.8066C42.7797 27.8066 42.7797 27.811 42.7754 27.8155C42.7754 27.8155 42.7754 27.8199 42.7712 27.8244C42.7712 27.8244 42.7669 27.8333 42.7627 27.8378C42.7627 27.8378 42.7585 27.8467 42.7542 27.8511C42.7542 27.8511 42.7542 27.8556 42.75 27.86C42.75 27.86 42.75 27.8645 42.7457 27.8689C42.7457 27.8689 42.7415 27.8779 42.7372 27.8779C42.7372 27.8823 42.733 27.8868 42.7287 27.8912C42.7287 27.8912 42.7287 27.8957 42.7245 27.9001C42.7245 27.9001 42.7245 27.9046 42.7203 27.9091C42.7203 27.9091 42.7203 27.9135 42.716 27.918C42.716 27.9224 42.7118 27.9269 42.7075 27.9313C42.7075 27.9313 42.7075 27.9402 42.7033 27.9402C42.7033 27.9402 42.7033 27.9447 42.699 27.9492V27.9581C42.699 27.9581 42.6906 27.967 42.6863 27.9714C42.6863 27.9714 42.6821 27.9804 42.6778 27.9848C42.6778 27.9848 42.6778 27.9893 42.6736 27.9937V28.0026C42.6736 28.0026 42.6651 28.0071 42.6651 28.0115C42.6651 28.016 42.6608 28.0205 42.6566 28.0249C42.6566 28.0249 42.6566 28.0294 42.6524 28.0338C42.6524 28.0338 42.6524 28.0383 42.6481 28.0427C42.6481 28.0427 42.6481 28.0472 42.6439 28.0517C42.6439 28.0561 42.6396 28.0606 42.6354 28.0695C42.6354 28.0695 42.6354 28.0739 42.6311 28.0784C42.6311 28.0784 42.6311 28.0873 42.6269 28.0873C42.6269 28.0873 42.6269 28.0918 42.6226 28.0962C42.6226 28.1007 42.6184 28.1051 42.6142 28.114L40.1187 32.6593L47.291 45.7247C47.4481 45.9832 47.5542 46.2773 47.5924 46.5981C47.6051 46.7095 47.6093 46.8165 47.6051 46.9279C47.5839 47.5518 47.308 48.1043 46.8751 48.4742C46.5823 48.7282 46.2173 48.8931 45.8056 48.9332C45.8056 48.9332 45.8014 48.9332 45.7972 48.9332C45.7462 48.9376 45.6953 48.9421 45.6444 48.9421H45.6359C45.6359 48.9421 45.6316 48.9421 45.6274 48.9421H54.1833C54.1833 48.9421 54.1875 48.9421 54.1918 48.9421H54.2003C54.2512 48.9421 54.3021 48.9421 54.353 48.9332C54.353 48.9332 54.3573 48.9332 54.3615 48.9332C54.7732 48.8931 55.1382 48.7237 55.431 48.4742C55.8597 48.1043 56.1398 47.5518 56.161 46.9279C56.161 46.8209 56.161 46.7095 56.1483 46.5981L56.0804 46.6605Z" fill="#D1FF79"/>
<path d="M45.5722 49C45.6232 49 45.6741 49 45.725 48.9911C45.725 48.9911 45.7293 48.9911 45.7335 48.9911C46.1452 48.951 46.5101 48.7816 46.803 48.5321C47.2316 48.1622 47.5117 47.6097 47.533 46.9858C47.533 46.8789 47.5329 46.7675 47.5202 46.6561C47.482 46.3352 47.3759 46.0411 47.2189 45.7827L40.0465 32.7172L32.8742 45.7782C32.7044 46.05 32.5983 46.3664 32.5644 46.7095C32.5644 46.7095 32.5644 46.714 32.5644 46.7185C32.5644 46.7185 32.5644 46.7274 32.5644 46.7318C32.5601 46.7942 32.5559 46.8566 32.5559 46.9145C32.5559 46.9145 32.5559 46.919 32.5559 46.9234V46.9323C32.5601 47.5829 32.8487 48.1622 33.2986 48.541C33.5829 48.7816 33.9352 48.9465 34.3341 48.9866C34.3384 48.9866 34.3469 48.9866 34.3511 48.9866C34.4063 48.9911 34.4614 48.9955 34.5166 48.9955C34.5166 48.9955 34.5251 48.9955 34.5294 48.9955C34.5294 48.9955 34.5294 48.9955 34.5336 48.9955H45.5425C45.5425 48.9955 45.5468 48.9955 45.551 48.9955H45.5595L45.5722 49Z" fill="#3D473C"/>
<line x1="152.225" y1="100" x2="152.225" y2="136" stroke="#686868" stroke-width="0.45"/>
<line x1="298.225" y1="100" x2="298.225" y2="136" stroke="#686868" stroke-width="0.45"/>
<line x1="466.225" y1="100" x2="466.225" y2="136" stroke="#686868" stroke-width="0.45"/>
<line x1="668.225" y1="100" x2="668.225" y2="136" stroke="#686868" stroke-width="0.45"/>
<line x1="880.225" y1="100" x2="880.225" y2="136" stroke="#686868" stroke-width="0.45"/>
<line x1="1068.22" y1="100" x2="1068.22" y2="136" stroke="#686868" stroke-width="0.45"/>
<circle cx="706.61" cy="117.661" r="23.61" fill="#272829"/>
<path d="M696.5 124.051C696.5 124.345 696.672 124.612 696.94 124.734L705.084 128.551L705.124 118.291L696.5 114.311V124.051Z" fill="#FFEA79"/>
<path d="M710.028 116.373L705.874 118.29L705.834 128.55L714.06 124.732C714.328 124.611 714.5 124.344 714.5 124.05V117.079C714.024 117.221 713.521 117.3 713 117.3C711.897 117.3 710.874 116.956 710.028 116.373Z" fill="#FFEA79"/>
<path d="M707.75 112.051C707.75 111.626 707.806 111.215 707.902 110.819L705.81 109.868C705.613 109.778 705.387 109.778 705.19 109.868C705.19 109.868 696.899 113.646 696.878 113.658L705.5 117.638L709.382 115.846C708.379 114.889 707.75 113.544 707.75 112.051Z" fill="#FFEA79"/>
<path d="M713 107.551C710.515 107.551 708.5 109.565 708.5 112.051C708.5 114.536 710.515 116.551 713 116.551C715.485 116.551 717.5 114.536 717.5 112.051C717.5 109.565 715.485 107.551 713 107.551ZM713 111.676C713.827 111.676 714.5 112.349 714.5 113.176C714.5 113.873 714.02 114.455 713.375 114.622V114.676C713.375 114.883 713.207 115.051 713 115.051C712.793 115.051 712.625 114.883 712.625 114.676V114.622C711.98 114.455 711.5 113.873 711.5 113.176C711.5 112.969 711.668 112.801 711.875 112.801C712.082 112.801 712.25 112.969 712.25 113.176C712.25 113.589 712.586 113.926 713 113.926C713.414 113.926 713.75 113.589 713.75 113.176C713.75 112.762 713.414 112.426 713 112.426C712.173 112.426 711.5 111.753 711.5 110.926C711.5 110.229 711.98 109.647 712.625 109.479V109.426C712.625 109.219 712.793 109.051 713 109.051C713.207 109.051 713.375 109.219 713.375 109.426V109.479C714.02 109.647 714.5 110.229 714.5 110.926C714.5 111.133 714.332 111.301 714.125 111.301C713.918 111.301 713.75 111.133 713.75 110.926C713.75 110.512 713.414 110.176 713 110.176C712.586 110.176 712.25 110.512 712.25 110.926C712.25 111.339 712.586 111.676 713 111.676Z" fill="#FFEA79"/>
<circle cx="190.61" cy="118.61" r="23.61" fill="#272829"/>
<path d="M197.3 112.7H196.4V110.9C196.4 110.661 196.305 110.432 196.136 110.264C195.968 110.095 195.739 110 195.5 110C195.261 110 195.032 110.095 194.864 110.264C194.695 110.432 194.6 110.661 194.6 110.9V112.7H187.4V110.9C187.4 110.661 187.305 110.432 187.136 110.264C186.968 110.095 186.739 110 186.5 110C186.261 110 186.032 110.095 185.864 110.264C185.695 110.432 185.6 110.661 185.6 110.9V112.7H184.7C183.984 112.7 183.297 112.984 182.791 113.491C182.284 113.997 182 114.684 182 115.4V116.3H200V115.4C200 114.684 199.716 113.997 199.209 113.491C198.703 112.984 198.016 112.7 197.3 112.7Z" fill="#FFEA79"/>
<path d="M182 125.3C182 126.016 182.284 126.703 182.791 127.209C183.297 127.716 183.984 128 184.7 128H197.3C198.016 128 198.703 127.716 199.209 127.209C199.716 126.703 200 126.016 200 125.3V118.1H182V125.3Z" fill="#FFEA79"/>
<circle cx="336.61" cy="118.61" r="23.61" fill="#272829"/>
<path d="M343.3 112.7H342.4V110.9C342.4 110.661 342.305 110.432 342.136 110.264C341.968 110.095 341.739 110 341.5 110C341.261 110 341.032 110.095 340.864 110.264C340.695 110.432 340.6 110.661 340.6 110.9V112.7H333.4V110.9C333.4 110.661 333.305 110.432 333.136 110.264C332.968 110.095 332.739 110 332.5 110C332.261 110 332.032 110.095 331.864 110.264C331.695 110.432 331.6 110.661 331.6 110.9V112.7H330.7C329.984 112.7 329.297 112.984 328.791 113.491C328.284 113.997 328 114.684 328 115.4V116.3H346V115.4C346 114.684 345.716 113.997 345.209 113.491C344.703 112.984 344.016 112.7 343.3 112.7Z" fill="#1BB278"/>
<path d="M328 125.3C328 126.016 328.284 126.703 328.791 127.209C329.297 127.716 329.984 128 330.7 128H343.3C344.016 128 344.703 127.716 345.209 127.209C345.716 126.703 346 126.016 346 125.3V118.1H328V125.3Z" fill="#1BB278"/>
<circle cx="47.6111" cy="118.611" r="23.6111" fill="#272829"/>
<path d="M36 120.6V126.999H39.1998V120.6H36ZM38.0241 122.996C38.0241 123.071 37.9794 123.142 37.8999 123.195C37.8203 123.248 37.7124 123.278 37.5999 123.278C37.4874 123.278 37.3795 123.248 37.3 123.195C37.2204 123.142 37.1757 123.071 37.1757 122.996V121.426C37.1757 121.351 37.2204 121.28 37.3 121.227C37.3795 121.174 37.4874 121.144 37.5999 121.144C37.7124 121.144 37.8203 121.174 37.8999 121.227C37.9794 121.28 38.0241 121.351 38.0241 121.426V122.996Z" fill="#FFA779"/>
<path d="M53.599 123.256C53.5998 123.395 53.5574 123.531 53.4765 123.649C53.3956 123.767 53.2794 123.863 53.1409 123.926C52.2143 124.346 47.5847 126.463 47.4163 126.556C45.4913 127.625 41.8417 126.471 40.7687 126.092C40.4674 125.985 39.6616 125.923 39.1998 125.895V122.199H39.6705C40.3808 122.202 41.0812 122.349 41.7183 122.629C42.3751 122.921 44.31 123.071 44.5715 123.076L46.8949 123.111C47.1046 123.115 47.3041 123.192 47.4498 123.327C47.5954 123.462 47.6751 123.642 47.6715 123.83V123.914C47.6697 124.011 47.6455 124.106 47.6004 124.194C47.5972 124.2 47.5936 124.207 47.5904 124.213C47.5502 124.286 47.496 124.352 47.4304 124.408C47.3562 124.473 47.2681 124.524 47.1713 124.558C47.0746 124.592 46.9711 124.608 46.8672 124.606L43.8734 124.559C43.8321 124.559 43.7912 124.565 43.7529 124.579C43.7145 124.592 43.6795 124.612 43.6499 124.638C43.6202 124.663 43.5965 124.694 43.5801 124.728C43.5636 124.761 43.5548 124.798 43.5541 124.834C43.5534 124.871 43.5608 124.908 43.5759 124.942C43.591 124.976 43.6135 125.007 43.6421 125.034C43.6707 125.06 43.7049 125.081 43.7427 125.096C43.7805 125.111 43.8212 125.119 43.8624 125.119L46.8562 125.166H46.8818C47.131 125.166 47.3758 125.107 47.5915 124.996C47.8072 124.885 47.9863 124.725 48.1107 124.532L52.3806 122.591C52.5082 122.533 52.6505 122.505 52.7939 122.509C52.9372 122.514 53.0767 122.552 53.1991 122.619C53.3214 122.686 53.4225 122.779 53.4925 122.891C53.5625 123.003 53.5992 123.129 53.599 123.257V123.256Z" fill="#FFA779"/>
<path d="M48.799 116.536L48.3179 116.527C47.9401 116.52 47.5804 116.364 47.318 116.092C47.0556 115.82 46.9119 115.455 46.9185 115.077V114.983C46.9236 114.737 46.9917 114.497 47.1163 114.285C47.2408 114.074 47.4176 113.898 47.6297 113.774C46.976 113.119 46.1153 112.711 45.1943 112.619C44.2734 112.528 43.3492 112.758 42.5793 113.272C41.8095 113.786 41.2416 114.551 40.9725 115.437C40.7035 116.322 40.7499 117.274 41.1038 118.129C41.4578 118.984 42.0974 119.69 42.9136 120.127C43.7298 120.563 44.672 120.703 45.5797 120.522C46.4874 120.341 47.3043 119.851 47.8912 119.136C48.478 118.42 48.7985 117.523 48.798 116.597C48.7996 116.576 48.7996 116.556 48.799 116.536ZM45.113 119.074V119.614C45.113 119.698 45.0798 119.778 45.0207 119.837C44.9616 119.896 44.8814 119.93 44.7978 119.93C44.7143 119.93 44.6341 119.896 44.575 119.837C44.5159 119.778 44.4827 119.698 44.4827 119.614V119.075C44.264 119.025 44.0602 118.924 43.8883 118.78C43.7164 118.636 43.5813 118.453 43.4941 118.246C43.4779 118.208 43.4694 118.167 43.4691 118.126C43.4688 118.084 43.4767 118.043 43.4922 118.005C43.5078 117.966 43.5308 117.931 43.5598 117.902C43.5889 117.872 43.6235 117.849 43.6616 117.833C43.6998 117.817 43.7407 117.808 43.7822 117.808C43.8236 117.808 43.8647 117.815 43.903 117.831C43.9414 117.847 43.9764 117.869 44.0059 117.899C44.0354 117.928 44.0589 117.962 44.075 118C44.1302 118.131 44.2198 118.244 44.3341 118.328C44.4485 118.412 44.5835 118.463 44.7246 118.476C44.8658 118.489 45.0079 118.464 45.1358 118.403C45.2637 118.342 45.3726 118.247 45.451 118.129C45.5294 118.011 45.5743 117.873 45.5809 117.732C45.5875 117.59 45.5556 117.449 45.4886 117.324C45.4216 117.199 45.322 117.095 45.2004 117.022C45.0787 116.949 44.9396 116.911 44.7978 116.911C44.4498 116.911 44.1139 116.783 43.8543 116.551C43.5947 116.32 43.4295 116 43.3905 115.654C43.3515 115.309 43.4414 114.96 43.6428 114.677C43.8443 114.393 44.1433 114.193 44.4827 114.116V113.577C44.4827 113.493 44.5159 113.413 44.575 113.354C44.6341 113.295 44.7143 113.261 44.7978 113.261C44.8814 113.261 44.9616 113.295 45.0207 113.354C45.0798 113.413 45.113 113.493 45.113 113.577V114.116C45.315 114.161 45.5044 114.251 45.6678 114.378C45.8312 114.505 45.9646 114.667 46.0586 114.851C46.0965 114.926 46.1033 115.012 46.0775 115.092C46.0516 115.171 45.9952 115.237 45.9207 115.275C45.8461 115.313 45.7596 115.32 45.68 115.294C45.6005 115.269 45.5345 115.212 45.4965 115.138C45.4333 115.013 45.3381 114.908 45.2207 114.832C45.1032 114.757 44.9677 114.714 44.8283 114.708C44.6888 114.703 44.5503 114.734 44.4272 114.8C44.304 114.866 44.2006 114.963 44.1277 115.082C44.0547 115.201 44.0147 115.338 44.012 115.477C44.0092 115.617 44.0438 115.755 44.112 115.876C44.1802 115.998 44.2797 116.1 44.4002 116.17C44.5206 116.241 44.6577 116.278 44.7973 116.278C45.1449 116.278 45.4803 116.406 45.7394 116.638C45.9986 116.869 46.1634 117.188 46.2023 117.534C46.2413 117.879 46.1517 118.227 45.9507 118.511C45.7497 118.794 45.4513 118.994 45.1125 119.072L45.113 119.074Z" fill="#FFA779"/>
<path d="M56.7988 112.473V117.4H56.3021C55.5523 117.396 54.8131 117.2 54.1407 116.827C53.4463 116.438 51.4041 116.237 51.1281 116.231L49.4955 116.2H49.4839L48.6758 116.184C48.4545 116.18 48.2439 116.076 48.0902 115.897C47.9365 115.717 47.8523 115.476 47.8562 115.227V115.114C47.8595 114.892 47.9329 114.678 48.0632 114.51C48.1935 114.343 48.3722 114.233 48.5676 114.201C48.6132 114.193 48.6591 114.19 48.7051 114.191L51.865 114.253H51.8711C51.9145 114.253 51.9577 114.244 51.998 114.226C52.0383 114.207 52.075 114.18 52.106 114.146C52.137 114.111 52.1617 114.07 52.1787 114.025C52.1957 113.98 52.2046 113.932 52.205 113.883C52.2053 113.834 52.1971 113.785 52.1808 113.74C52.1645 113.694 52.1404 113.653 52.1099 113.618C52.0794 113.583 52.0431 113.555 52.0031 113.536C51.9631 113.517 51.9201 113.507 51.8766 113.506L48.7167 113.444C48.6974 113.444 48.6775 113.444 48.6582 113.444C48.2511 112.907 47.7558 112.463 47.1994 112.138C48.0571 111.64 48.1035 111.606 48.1255 111.59C50.1573 110.166 54.0093 111.704 55.1413 112.209C55.4598 112.353 56.3104 112.435 56.7988 112.473Z" fill="#FFA779"/>
<path d="M56.7988 111V119H59.9986V111H56.7988ZM58.8229 117.967C58.8229 118.06 58.7782 118.15 58.6987 118.215C58.6191 118.281 58.5112 118.318 58.3987 118.318C58.2862 118.318 58.1783 118.281 58.0988 118.215C58.0192 118.15 57.9745 118.06 57.9745 117.967V116.004C57.9745 115.911 58.0192 115.821 58.0988 115.755C58.1783 115.689 58.2862 115.652 58.3987 115.652C58.5112 115.652 58.6191 115.689 58.6987 115.755C58.7782 115.821 58.8229 115.911 58.8229 116.004V117.967Z" fill="#FFA779"/>
<circle cx="504.61" cy="117.61" r="23.61" fill="#272829"/>
<path d="M504.209 115.857C502.876 116.045 501.711 117.297 501.7 117.308C501.683 117.325 501.664 117.341 501.644 117.353C499.833 118.529 498.812 117.634 498.769 117.581C497.611 116.537 498.674 114.788 498.719 114.715C499.193 113.926 499.768 113.202 500.429 112.561H495.51L493.375 119.603C493.398 119.616 493.419 119.632 493.437 119.651C496.75 123.397 501.149 126.721 502.884 127.976C503.065 128.109 503.289 128.169 503.512 128.144C503.735 128.118 503.941 128.008 504.086 127.837C504.231 127.666 504.306 127.446 504.296 127.222C504.285 126.997 504.19 126.785 504.029 126.629L501.641 124.241C501.589 124.188 501.559 124.117 501.559 124.043C501.559 123.968 501.589 123.897 501.641 123.844C501.667 123.818 501.698 123.797 501.732 123.783C501.767 123.768 501.803 123.761 501.841 123.761C501.878 123.761 501.915 123.768 501.949 123.783C501.983 123.797 502.014 123.818 502.04 123.844L503.312 125.116L504.437 126.241L504.999 126.817C505.201 127.014 505.472 127.123 505.753 127.123C506.035 127.122 506.305 127.011 506.506 126.813C506.707 126.616 506.822 126.348 506.828 126.066C506.833 125.784 506.728 125.512 506.535 125.307L504.344 123.02L503.928 122.59C503.901 122.564 503.88 122.533 503.866 122.498C503.852 122.464 503.844 122.427 503.844 122.39C503.844 122.353 503.852 122.316 503.866 122.282C503.88 122.248 503.901 122.217 503.928 122.191C503.954 122.164 503.985 122.143 504.019 122.129C504.053 122.115 504.09 122.107 504.127 122.107C504.164 122.107 504.201 122.115 504.235 122.129C504.27 122.143 504.301 122.164 504.327 122.191L507.525 125.509C507.68 125.663 507.876 125.768 508.089 125.812C508.302 125.856 508.524 125.837 508.727 125.757C508.93 125.678 509.105 125.541 509.232 125.364C509.358 125.186 509.431 124.976 509.44 124.758C509.445 124.605 509.417 124.452 509.359 124.31C509.301 124.168 509.213 124.04 509.103 123.934L507.184 122.078L505.848 120.781C505.819 120.757 505.794 120.726 505.777 120.691C505.76 120.657 505.75 120.619 505.748 120.58C505.746 120.542 505.752 120.503 505.765 120.467C505.779 120.43 505.8 120.397 505.827 120.369C505.854 120.342 505.886 120.32 505.922 120.305C505.958 120.291 505.997 120.283 506.035 120.284C506.074 120.285 506.112 120.294 506.147 120.311C506.182 120.327 506.214 120.35 506.239 120.379L510.036 124.055C510.136 124.158 510.255 124.239 510.387 124.294C510.519 124.348 510.66 124.376 510.803 124.375C510.946 124.374 511.087 124.344 511.217 124.287C511.348 124.229 511.466 124.146 511.564 124.042C511.662 123.939 511.738 123.816 511.787 123.682C511.836 123.548 511.857 123.405 511.85 123.263C511.843 123.12 511.806 122.981 511.744 122.852C511.681 122.724 511.593 122.61 511.485 122.517L504.209 115.857Z" fill="#22D2FE"/>
<path d="M494.652 110.913C493.192 110.257 491.6 109.947 490 110.007V121.038H491.718C491.902 121.039 492.08 120.979 492.227 120.869C492.374 120.759 492.481 120.604 492.531 120.428L495.113 111.926C495.172 111.73 495.158 111.519 495.073 111.333C494.988 111.146 494.838 110.997 494.652 110.913Z" fill="#22D2FE"/>
<path d="M505.12 111.459C504.513 111.209 503.836 111.194 503.219 111.416C502.142 111.81 500.569 112.755 499.188 115.011C499.188 115.028 498.325 116.417 499.138 117.165C499.166 117.19 499.892 117.798 501.298 116.901C501.5 116.69 502.769 115.419 504.268 115.281C504.307 115.278 504.346 115.282 504.382 115.295C504.419 115.308 504.453 115.328 504.482 115.354L511.853 122.104C511.887 122.135 511.918 122.169 511.949 122.202C512.793 122.073 513.355 121.302 513.518 121.021L510.846 113.74L505.12 111.459Z" fill="#22D2FE"/>
<path d="M516.437 111.348C514.833 111.337 513.242 111.637 511.752 112.231C511.551 112.317 511.392 112.477 511.307 112.678C511.222 112.879 511.218 113.105 511.296 113.308L514.427 121.827C514.488 121.992 514.597 122.133 514.741 122.234C514.885 122.334 515.056 122.389 515.231 122.39H517V111.362C516.859 111.354 516.665 111.348 516.437 111.348Z" fill="#22D2FE"/>
<circle cx="918.61" cy="117.61" r="23.61" fill="#272829"/>
<path d="M925.337 106H911.663C911.222 106.001 910.799 106.174 910.488 106.482C910.176 106.79 910.001 107.207 910 107.643V127.357C910.001 127.793 910.176 128.21 910.488 128.518C910.799 128.826 911.222 128.999 911.663 129H925.337C925.778 128.999 926.201 128.826 926.512 128.518C926.824 128.21 926.999 127.793 927 127.357V107.643C926.999 107.207 926.824 106.79 926.512 106.482C926.201 106.174 925.778 106.001 925.337 106ZM914.747 111.339C914.384 111.335 914.034 111.203 913.762 110.966C913.489 110.729 913.311 110.403 913.261 110.048C913.211 109.692 913.291 109.331 913.487 109.029C913.684 108.727 913.983 108.505 914.331 108.403L914.331 107.971C914.331 107.863 914.375 107.758 914.453 107.681C914.531 107.604 914.636 107.561 914.747 107.561C914.857 107.561 914.963 107.604 915.041 107.681C915.119 107.758 915.162 107.863 915.162 107.971V108.403C915.479 108.492 915.758 108.681 915.957 108.942C916.156 109.202 916.263 109.518 916.264 109.844C916.262 109.952 916.217 110.054 916.139 110.129C916.061 110.205 915.957 110.247 915.848 110.247C915.739 110.247 915.635 110.205 915.557 110.129C915.479 110.054 915.435 109.952 915.433 109.844C915.433 109.711 915.393 109.58 915.318 109.469C915.244 109.357 915.137 109.27 915.012 109.219C914.888 109.167 914.75 109.154 914.617 109.179C914.485 109.205 914.363 109.269 914.267 109.363C914.171 109.457 914.105 109.577 914.079 109.708C914.052 109.839 914.065 109.975 914.116 110.099C914.168 110.223 914.255 110.328 914.367 110.403C914.479 110.477 914.611 110.517 914.747 110.518C915.113 110.517 915.466 110.647 915.742 110.884C916.019 111.121 916.199 111.449 916.249 111.807C916.3 112.165 916.218 112.529 916.018 112.832C915.818 113.135 915.514 113.356 915.162 113.454V113.886C915.162 113.995 915.119 114.099 915.041 114.176C914.963 114.253 914.857 114.296 914.747 114.296C914.636 114.296 914.531 114.253 914.453 114.176C914.375 114.099 914.331 113.995 914.331 113.886V113.454C914.015 113.364 913.737 113.175 913.539 112.915C913.341 112.655 913.234 112.338 913.234 112.013C913.236 111.905 913.281 111.803 913.358 111.728C913.436 111.652 913.541 111.61 913.649 111.61C913.758 111.61 913.863 111.652 913.94 111.728C914.018 111.803 914.063 111.905 914.065 112.013C914.065 112.147 914.104 112.278 914.179 112.389C914.254 112.5 914.361 112.587 914.486 112.639C914.611 112.69 914.749 112.704 914.882 112.678C915.014 112.652 915.137 112.587 915.232 112.493C915.328 112.398 915.393 112.277 915.419 112.146C915.446 112.015 915.432 111.879 915.38 111.755C915.328 111.632 915.24 111.526 915.127 111.452C915.015 111.378 914.882 111.339 914.747 111.339ZM913.512 115.705H924.647C924.758 115.705 924.863 115.748 924.941 115.825C925.019 115.902 925.063 116.007 925.063 116.116C925.063 116.225 925.019 116.329 924.941 116.406C924.863 116.483 924.758 116.527 924.647 116.527H913.512C913.403 116.525 913.299 116.481 913.222 116.404C913.146 116.327 913.103 116.224 913.103 116.116C913.103 116.008 913.146 115.905 913.222 115.828C913.299 115.751 913.403 115.707 913.512 115.705ZM913.512 119.964H924.647C924.758 119.964 924.863 120.008 924.941 120.085C925.019 120.162 925.063 120.266 925.063 120.375C925.063 120.484 925.019 120.588 924.941 120.665C924.863 120.742 924.758 120.786 924.647 120.786H913.512C913.403 120.784 913.299 120.74 913.222 120.663C913.146 120.586 913.103 120.483 913.103 120.375C913.103 120.267 913.146 120.164 913.222 120.087C913.299 120.01 913.403 119.966 913.512 119.964ZM913.512 124.223H924.647C924.758 124.223 924.863 124.267 924.941 124.344C925.019 124.421 925.063 124.525 925.063 124.634C925.063 124.743 925.019 124.848 924.941 124.925C924.863 125.002 924.758 125.045 924.647 125.045H913.512C913.403 125.043 913.299 124.999 913.222 124.922C913.146 124.845 913.103 124.742 913.103 124.634C913.103 124.526 913.146 124.423 913.222 124.346C913.299 124.269 913.403 124.225 913.512 124.223ZM924.647 112.268H918.039C917.93 112.266 917.825 112.222 917.749 112.145C917.672 112.068 917.629 111.965 917.629 111.857C917.629 111.749 917.672 111.645 917.749 111.569C917.825 111.492 917.93 111.448 918.039 111.446H924.647C924.757 111.448 924.861 111.492 924.937 111.569C925.014 111.645 925.057 111.749 925.057 111.857C925.057 111.965 925.014 112.068 924.937 112.145C924.861 112.222 924.757 112.266 924.647 112.268Z" fill="#D1FF79"/>
<circle cx="1106.61" cy="117.61" r="23.61" fill="#272829"/>
<path d="M1117.42 116.535L1116.72 115.834C1116.43 115.546 1116.25 114.899 1116.36 114.504L1116.62 113.546C1116.76 113.016 1116.69 112.462 1116.41 111.985C1116.13 111.508 1115.69 111.168 1115.16 111.026L1114.2 110.769C1113.81 110.663 1113.34 110.189 1113.23 109.796L1112.97 108.838C1112.69 107.768 1111.53 107.094 1110.45 107.382L1109.5 107.639C1109.13 107.737 1108.44 107.559 1108.17 107.283L1107.46 106.582C1106.69 105.806 1105.33 105.806 1104.55 106.582L1103.85 107.284C1103.58 107.559 1102.89 107.738 1102.52 107.64L1101.57 107.383C1100.49 107.094 1099.33 107.768 1099.04 108.839L1098.79 109.796C1098.68 110.191 1098.21 110.664 1097.81 110.77L1096.86 111.027C1096.33 111.169 1095.88 111.51 1095.61 111.987C1095.33 112.464 1095.26 113.018 1095.4 113.546L1095.66 114.505C1095.76 114.899 1095.59 115.546 1095.3 115.835L1094.6 116.536C1094.21 116.923 1094 117.441 1094 117.991C1094 118.541 1094.21 119.058 1094.6 119.445L1095.3 120.147C1095.59 120.435 1095.76 121.082 1095.66 121.477L1095.4 122.435C1095.26 122.964 1095.33 123.519 1095.61 123.995C1095.89 124.472 1096.33 124.813 1096.86 124.954L1097.81 125.211C1098.21 125.316 1098.68 125.79 1098.79 126.183L1099.05 127.142C1099.33 128.211 1100.49 128.883 1101.57 128.597L1102.52 128.34C1102.89 128.243 1103.58 128.421 1103.85 128.697L1104.55 129.397C1104.94 129.786 1105.46 130 1106.01 130C1106.56 130 1107.08 129.786 1107.46 129.4L1108.17 128.698C1108.44 128.423 1109.13 128.246 1109.5 128.342L1110.45 128.598C1110.63 128.645 1110.81 128.668 1110.98 128.668H1110.98C1111.91 128.668 1112.73 128.041 1112.97 127.143L1113.23 126.187C1113.34 125.791 1113.81 125.318 1114.2 125.211L1115.16 124.955C1115.69 124.814 1116.13 124.472 1116.41 123.995C1116.69 123.517 1116.76 122.963 1116.62 122.436L1116.36 121.477C1116.25 121.082 1116.43 120.436 1116.72 120.147L1117.42 119.445C1117.8 119.058 1118.02 118.541 1118.02 117.991C1118.02 117.439 1117.81 116.923 1117.42 116.535ZM1100.4 114.788C1100.4 113.464 1101.48 112.386 1102.81 112.386C1104.13 112.386 1105.21 113.464 1105.21 114.788C1105.21 116.112 1104.13 117.19 1102.81 117.19C1101.48 117.19 1100.4 116.112 1100.4 114.788ZM1103.37 121.759C1103.22 121.915 1103.01 121.994 1102.81 121.994C1102.6 121.994 1102.4 121.915 1102.24 121.759C1101.93 121.446 1101.93 120.94 1102.24 120.627L1108.65 114.222C1108.96 113.909 1109.46 113.909 1109.78 114.222C1110.09 114.535 1110.09 115.041 1109.78 115.354L1103.37 121.759ZM1109.21 123.595C1107.89 123.595 1106.81 122.517 1106.81 121.193C1106.81 119.869 1107.89 118.791 1109.21 118.791C1110.54 118.791 1111.61 119.869 1111.61 121.193C1111.61 122.517 1110.54 123.595 1109.21 123.595Z" fill="#1BB278"/>
<path d="M1109.21 121.994C1109.65 121.994 1110.01 121.635 1110.01 121.193C1110.01 120.751 1109.65 120.393 1109.21 120.393C1108.77 120.393 1108.41 120.751 1108.41 121.193C1108.41 121.635 1108.77 121.994 1109.21 121.994Z" fill="#1BB278"/>
<path d="M1102.81 115.588C1103.25 115.588 1103.61 115.229 1103.61 114.787C1103.61 114.345 1103.25 113.986 1102.81 113.986C1102.36 113.986 1102.01 114.345 1102.01 114.787C1102.01 115.229 1102.36 115.588 1102.81 115.588Z" fill="#1BB278"/>
</svg>
