<svg width="1280" height="720" viewBox="0 0 1280 720" fill="none" xmlns="http://www.w3.org/2000/svg">
<rect width="1280" height="720" fill="#0E0E1F"/>
<path d="M59.161 48.7906V46.4689L68.3493 34.7804L68.9901 36.0415H59.3265V33.1049H71.7827V35.4266L62.5944 47.115L61.8984 45.854H72.033V48.7906H59.161Z" fill="white"/>
<path d="M81.3316 49C79.6765 49 78.2293 48.6524 76.99 47.9573C75.7508 47.2621 74.7916 46.3085 74.1126 45.092C73.4336 43.8799 73.094 42.4985 73.094 40.9522C73.094 39.4059 73.4251 38.0022 74.0871 36.7946C74.7492 35.5915 75.6617 34.6467 76.8245 33.9605C77.9874 33.2743 79.3157 32.9311 80.8054 32.9311C82.295 32.9311 83.5512 33.2653 84.6886 33.9293C85.826 34.5933 86.7173 35.5335 87.3708 36.75C88.0202 37.9621 88.347 39.3925 88.347 41.0369C88.347 41.1928 88.3427 41.3711 88.3342 41.5671C88.3257 41.7632 88.3088 41.9504 88.2918 42.1242H75.8654V39.6867H86.4499L85.0833 40.4487C85.1003 39.5485 84.9263 38.7553 84.5528 38.0691C84.1794 37.3828 83.6743 36.8436 83.0292 36.4515C82.3884 36.0593 81.6457 35.8633 80.8096 35.8633C79.9736 35.8633 79.2054 36.0593 78.5603 36.4515C77.9195 36.8436 77.4144 37.3873 77.0537 38.0824C76.6887 38.7776 76.5105 39.5931 76.5105 40.5333V41.1215C76.5105 42.0618 76.7142 42.8951 77.1258 43.617C77.5333 44.3433 78.1104 44.9003 78.8574 45.2925C79.6001 45.6846 80.4574 45.8807 81.425 45.8807C82.2611 45.8807 83.0165 45.7426 83.6871 45.4707C84.3576 45.1989 84.9518 44.7667 85.4738 44.1784L87.3454 46.4422C86.6748 47.2666 85.8345 47.8949 84.8202 48.336C83.8059 48.7772 82.6473 48.9955 81.3444 48.9955L81.3316 49Z" fill="white"/>
<path d="M90.9952 48.7906V27H94.4838V36.75L94.2037 40.921L94.314 45.092V48.7906H90.991H90.9952ZM99.2625 48.9955C97.9978 48.9955 96.8689 48.7014 95.8843 48.1132C94.8954 47.525 94.1188 46.6382 93.5543 45.4574C92.9856 44.272 92.7013 42.7703 92.7013 40.9477C92.7013 39.1252 92.9941 37.6012 93.5798 36.4248C94.1655 35.2483 94.9591 34.3749 95.9522 33.7956C96.9495 33.2163 98.053 32.9311 99.2625 32.9311C100.731 32.9311 102.03 33.2653 103.159 33.9293C104.283 34.5933 105.179 35.5246 105.841 36.7189C106.503 37.9131 106.834 39.3212 106.834 40.9477C106.834 42.5742 106.503 43.9824 105.841 45.1766C105.179 46.3709 104.287 47.3067 103.159 47.9795C102.034 48.6569 100.735 48.9911 99.2625 48.9911V48.9955ZM98.8721 45.854C99.7081 45.854 100.459 45.6579 101.121 45.2657C101.783 44.8736 102.31 44.3077 102.7 43.5635C103.091 42.8193 103.286 41.9459 103.286 40.9477C103.286 39.9496 103.091 39.0539 102.7 38.3186C102.31 37.5833 101.783 37.0219 101.121 36.6297C100.459 36.2376 99.7124 36.0415 98.8721 36.0415C98.0318 36.0415 97.2806 36.2376 96.61 36.6297C95.9395 37.0219 95.409 37.5833 95.0185 38.3186C94.6281 39.0539 94.4328 39.9273 94.4328 40.9477C94.4328 41.9682 94.6281 42.8193 95.0185 43.5635C95.409 44.3077 95.9395 44.8736 96.61 45.2657C97.2806 45.6579 98.036 45.854 98.8721 45.854Z" fill="white"/>
<path d="M35.7941 27C35.8025 27 35.811 27 35.8153 27C35.8153 27 35.8153 27 35.8195 27C36.5877 27.0223 37.2455 27.4991 37.5553 28.1853L40.0465 32.7217L42.542 28.1764C42.542 28.1764 42.5463 28.1675 42.5505 28.1586C42.5505 28.1586 42.5505 28.1541 42.5547 28.1497C42.5547 28.1497 42.5547 28.1408 42.559 28.1408C42.559 28.1408 42.559 28.1363 42.5632 28.1319C42.5632 28.1274 42.5675 28.1229 42.5717 28.114C42.5717 28.114 42.5717 28.1096 42.576 28.1051C42.576 28.1051 42.576 28.1007 42.5802 28.0962C42.5802 28.0962 42.5802 28.0918 42.5845 28.0873C42.5845 28.0828 42.5887 28.0784 42.5929 28.0739C42.5929 28.0739 42.5929 28.0695 42.5972 28.065C42.5972 28.065 42.5972 28.0606 42.6014 28.0561C42.6014 28.0561 42.6014 28.0517 42.6057 28.0472C42.6057 28.0472 42.6099 28.0383 42.6142 28.0338C42.6142 28.0338 42.6184 28.0249 42.6226 28.0205C42.6226 28.0205 42.6226 28.016 42.6269 28.0115C42.6269 28.0115 42.6269 28.0071 42.6311 28.0026C42.6311 28.0026 42.6311 27.9937 42.6354 27.9937C42.6354 27.9893 42.6396 27.9848 42.6439 27.9804C42.6439 27.9804 42.6439 27.9759 42.6481 27.9714C42.6481 27.9714 42.6481 27.967 42.6524 27.9625C42.6524 27.9625 42.6524 27.9581 42.6566 27.9536C42.6566 27.9492 42.6608 27.9447 42.6651 27.9402C42.6651 27.9402 42.6693 27.9313 42.6736 27.9313C42.6736 27.9313 42.6736 27.9269 42.6778 27.9224C42.6778 27.9224 42.6778 27.918 42.6821 27.9135C42.6821 27.9135 42.6863 27.9046 42.6906 27.9001C42.6906 27.9001 42.6948 27.8912 42.699 27.8868C42.699 27.8868 42.699 27.8823 42.7033 27.8779C42.7033 27.8779 42.7033 27.8734 42.7075 27.8689C42.7075 27.8689 42.7075 27.8645 42.7118 27.86C42.7118 27.8556 42.7203 27.8511 42.7203 27.8467C42.7203 27.8467 42.7245 27.8422 42.7287 27.8378C42.7287 27.8378 42.7287 27.8333 42.733 27.8288C42.733 27.8288 42.7372 27.8244 42.7415 27.8199C42.7415 27.8199 42.75 27.811 42.75 27.8066C42.75 27.8066 42.7542 27.8021 42.7585 27.7977C42.7585 27.7977 42.7585 27.7932 42.7627 27.7887C42.7627 27.7887 42.7669 27.7843 42.7712 27.7798C42.7712 27.7798 42.7754 27.7754 42.7797 27.7709C42.7797 27.7665 42.7882 27.762 42.7924 27.7575C42.7924 27.7575 42.7924 27.7531 42.7967 27.7486C42.7967 27.7486 42.8009 27.7442 42.8051 27.7397C42.8051 27.7397 42.8051 27.7353 42.8094 27.7308C42.8094 27.7264 42.8179 27.7219 42.8221 27.7174C42.8221 27.7174 42.8221 27.713 42.8264 27.7085C42.8264 27.7085 42.8306 27.7041 42.8348 27.6996C42.8348 27.6996 42.8348 27.6952 42.8391 27.6907C42.8391 27.6862 42.8476 27.6818 42.8518 27.6773C42.8518 27.6773 42.8518 27.6729 42.8561 27.6684C42.8561 27.6684 42.8603 27.664 42.8646 27.6595C42.8646 27.6595 42.8646 27.6595 42.8688 27.6551C42.873 27.6506 42.8773 27.6461 42.8815 27.6417C42.8815 27.6417 42.8815 27.6417 42.8858 27.6372C42.8858 27.6372 42.89 27.6328 42.8943 27.6283C42.8943 27.6283 42.8943 27.6283 42.8985 27.6239C42.9028 27.6194 42.907 27.6149 42.9112 27.6105C42.9112 27.6105 42.9112 27.6105 42.9155 27.606C42.9155 27.606 42.9197 27.6016 42.924 27.5971C42.924 27.5971 42.924 27.5971 42.9282 27.5927C42.9282 27.5927 42.9325 27.5882 42.9367 27.5838C42.9409 27.5793 42.9494 27.5704 42.9537 27.5659C42.9537 27.5659 42.9537 27.5659 42.9579 27.5615C42.9579 27.5615 42.9622 27.557 42.9664 27.5526C42.9664 27.5526 42.9664 27.5526 42.9707 27.5526C42.9749 27.5481 42.9834 27.5437 42.9876 27.5347C42.9876 27.5347 42.9876 27.5347 42.9919 27.5303C42.9919 27.5303 42.9961 27.5258 43.0004 27.5214C43.0004 27.5214 43.0004 27.5214 43.0046 27.5214C43.0089 27.5169 43.0173 27.5125 43.0216 27.508C43.0216 27.508 43.0216 27.508 43.0258 27.508C43.0258 27.508 43.0343 27.5035 43.0343 27.4991C43.0343 27.4991 43.0343 27.4991 43.0386 27.4991C43.0428 27.4946 43.0513 27.4902 43.0555 27.4857C43.0555 27.4857 43.0555 27.4857 43.0598 27.4857C43.0598 27.4857 43.0683 27.4813 43.0683 27.4768C43.0683 27.4768 43.0683 27.4768 43.0725 27.4768C43.081 27.4724 43.0852 27.4679 43.0937 27.459C43.0937 27.459 43.1022 27.4545 43.1065 27.4501C43.1065 27.4501 43.1065 27.4501 43.1107 27.4501C43.1234 27.4412 43.1319 27.4322 43.1447 27.4233C43.1447 27.4233 43.1447 27.4233 43.1489 27.4233C43.1616 27.4144 43.1744 27.4055 43.1829 27.3966C43.1956 27.3877 43.2083 27.3788 43.2211 27.3699C43.2211 27.3699 43.2295 27.3654 43.2338 27.3609C43.2423 27.3565 43.2508 27.352 43.2592 27.3431C43.2635 27.3431 43.2677 27.3387 43.272 27.3342C43.2805 27.3298 43.289 27.3253 43.2974 27.3208C43.3017 27.3208 43.3059 27.3164 43.3102 27.3119C43.3229 27.303 43.3356 27.2986 43.3526 27.2896C43.3653 27.2807 43.3781 27.2763 43.3951 27.2674C43.4078 27.2585 43.4248 27.254 43.4375 27.2451C43.4502 27.2362 43.4672 27.2317 43.4799 27.2228C43.4927 27.2184 43.5096 27.2094 43.5224 27.205C43.5733 27.1827 43.6242 27.1649 43.6794 27.1471C43.6964 27.1426 43.7091 27.1381 43.7261 27.1337C43.7431 27.1292 43.76 27.1248 43.7728 27.1203C43.8746 27.0936 43.9807 27.0758 44.0911 27.0668C44.0911 27.0668 44.125 27.0668 44.142 27.0668C44.142 27.0668 44.159 27.0668 44.1675 27.0668C44.1675 27.0668 44.1844 27.0668 44.1929 27.0668C44.1929 27.0668 44.2099 27.0668 44.2184 27.0668C44.2269 27.0668 44.2354 27.0668 44.2439 27.0668C44.2439 27.0668 44.2481 27.0668 44.2523 27.0668H35.6964C35.6964 27.0668 35.7134 27.0668 35.7219 27.0668L35.7941 27Z" fill="#717D7A"/>
<path d="M47.5202 46.6605C47.482 46.3397 47.3759 46.0456 47.2189 45.7871L37.5596 28.1853C37.2455 27.4991 36.5877 27.0223 35.8238 27C35.8238 27 35.8238 27 35.8195 27C35.811 27 35.8025 27 35.7983 27C35.7983 27 35.7813 27 35.7728 27C35.7728 27 35.7686 27 35.7644 27C35.7304 27 35.6964 27 35.6625 27C34.924 27.0446 34.2959 27.5125 33.9904 28.1764L24.3183 45.7827C24.1485 46.0545 24.0424 46.3709 24.0085 46.714C24.0085 46.714 24.0085 46.7184 24.0085 46.7229C24.0085 46.7229 24.0085 46.7318 24.0085 46.7363C24.0042 46.7987 24 46.861 24 46.919C24 46.919 24 46.9234 24 46.9279V46.9368C24.0042 47.5874 24.2928 48.1667 24.7427 48.5455C25.027 48.7861 25.3793 48.951 25.7782 48.9911C25.7825 48.9911 25.791 48.9911 25.7952 48.9911C25.8504 48.9955 25.9056 49 25.9607 49C25.9607 49 25.9692 49 25.9735 49C25.9735 49 25.9735 49 25.9777 49H45.5468C45.5468 49 45.551 49 45.5553 49H45.5637C45.6147 49 45.6656 49 45.7165 48.9911C45.7165 48.9911 45.7208 48.9911 45.725 48.9911C46.1367 48.951 46.5017 48.7816 46.7945 48.5321C47.2231 48.1622 47.5032 47.6097 47.5245 46.9858C47.5245 46.8789 47.5245 46.7675 47.5117 46.6561L47.5202 46.6605Z" fill="#3B4240"/>
<path d="M56.0804 46.6605C56.0422 46.3397 55.9361 46.0456 55.779 45.7871L46.1155 28.1853C45.8099 27.5125 45.1733 27.0401 44.4306 27C44.4263 27 44.4179 27 44.4094 27H44.4009C44.4009 27 44.3882 27 44.3797 27C44.3797 27 44.3797 27 44.3754 27C44.3754 27 44.3712 27 44.3669 27C44.3627 27 44.3542 27 44.35 27C44.3415 27 44.333 27 44.3245 27C44.3245 27 44.3202 27 44.316 27C44.316 27 44.299 27 44.2905 27C44.2821 27 44.2736 27 44.2651 27C44.2651 27 44.2481 27 44.2396 27C44.2396 27 44.2226 27 44.2141 27C44.1972 27 44.1802 27 44.1632 27C44.0529 27.0089 43.9468 27.0267 43.8449 27.0535C43.8279 27.0535 43.811 27.0624 43.7982 27.0668C43.7813 27.0713 43.7643 27.0758 43.7516 27.0802C43.7006 27.098 43.6455 27.1159 43.5945 27.1381C43.5775 27.1426 43.5648 27.1515 43.5521 27.156C43.5394 27.1604 43.5224 27.1693 43.5096 27.1782C43.4969 27.1872 43.4799 27.1916 43.4672 27.2005C43.4545 27.2094 43.4375 27.2139 43.4248 27.2228C43.412 27.2317 43.3993 27.2362 43.3823 27.2451C43.3781 27.2451 43.3738 27.2495 43.3696 27.254C43.3696 27.254 43.3526 27.2674 43.3441 27.2718C43.3399 27.2718 43.3356 27.2763 43.3314 27.2807C43.3229 27.2852 43.3144 27.2896 43.3059 27.2986C43.3059 27.2986 43.2974 27.303 43.2932 27.3075C43.2805 27.3164 43.2677 27.3253 43.255 27.3342C43.2423 27.3431 43.2295 27.352 43.2211 27.3609C43.2211 27.3609 43.2211 27.3609 43.2168 27.3609C43.2041 27.3699 43.1956 27.3788 43.1829 27.3877C43.1829 27.3877 43.1829 27.3877 43.1786 27.3877C43.1786 27.3877 43.1701 27.3921 43.1659 27.3966C43.1574 27.4011 43.1531 27.4055 43.1447 27.4144C43.1447 27.4144 43.1447 27.4144 43.1404 27.4144C43.1404 27.4144 43.1319 27.4189 43.1319 27.4233C43.1319 27.4233 43.1319 27.4233 43.1277 27.4233C43.1234 27.4278 43.115 27.4322 43.1107 27.4367C43.1107 27.4367 43.1107 27.4367 43.1065 27.4367C43.1065 27.4367 43.098 27.4412 43.098 27.4456C43.098 27.4456 43.098 27.4456 43.0937 27.4456C43.0895 27.4501 43.081 27.4545 43.0768 27.459C43.0768 27.459 43.0768 27.459 43.0725 27.459C43.0725 27.459 43.064 27.4634 43.064 27.4679C43.064 27.4679 43.064 27.4679 43.0598 27.4724C43.0555 27.4768 43.047 27.4813 43.0428 27.4902C43.0428 27.4902 43.0428 27.4902 43.0386 27.4902C43.0386 27.4902 43.0343 27.4946 43.0301 27.4991C43.0301 27.4991 43.0301 27.4991 43.0258 27.5035C43.0216 27.508 43.0131 27.5169 43.0089 27.5214C43.0089 27.5214 43.0046 27.5258 43.0004 27.5303H42.9961C42.9961 27.5303 42.9919 27.5436 42.9876 27.5436C42.9876 27.5436 42.9876 27.5436 42.9834 27.5481C42.9791 27.5526 42.9749 27.557 42.9707 27.5615H42.9664C42.9664 27.5615 42.9622 27.5748 42.9579 27.5748C42.9579 27.5748 42.9579 27.5748 42.9537 27.5793C42.9494 27.5838 42.9452 27.5882 42.9409 27.5927C42.9409 27.5927 42.9409 27.5927 42.9367 27.5971C42.9367 27.5971 42.9325 27.6016 42.9282 27.606C42.9282 27.606 42.9282 27.6105 42.924 27.6149C42.924 27.6194 42.9155 27.6239 42.9112 27.6283C42.9112 27.6283 42.9112 27.6328 42.907 27.6372C42.907 27.6372 42.9028 27.6417 42.8985 27.6461C42.8985 27.6461 42.8985 27.6506 42.8943 27.6551C42.8943 27.6595 42.8858 27.664 42.8815 27.6684C42.8815 27.6684 42.8815 27.6729 42.8773 27.6773C42.8773 27.6773 42.873 27.6818 42.8688 27.6862C42.8688 27.6862 42.8688 27.6907 42.8646 27.6952C42.8646 27.6996 42.8561 27.7041 42.8518 27.7085C42.8518 27.7085 42.8476 27.713 42.8433 27.7174C42.8433 27.7174 42.8391 27.7219 42.8348 27.7264C42.8348 27.7264 42.8348 27.7308 42.8306 27.7353C42.8306 27.7353 42.8264 27.7397 42.8221 27.7442C42.8221 27.7442 42.8136 27.7531 42.8136 27.7575L42.8051 27.7665C42.8051 27.7665 42.8051 27.7709 42.8009 27.7754C42.8009 27.7754 42.7967 27.7798 42.7924 27.7843C42.7924 27.7887 42.7839 27.7932 42.7839 27.7977C42.7839 27.7977 42.7839 27.8021 42.7797 27.8066C42.7797 27.8066 42.7797 27.811 42.7754 27.8155C42.7754 27.8155 42.7754 27.8199 42.7712 27.8244C42.7712 27.8244 42.7669 27.8333 42.7627 27.8378C42.7627 27.8378 42.7585 27.8467 42.7542 27.8511C42.7542 27.8511 42.7542 27.8556 42.75 27.86C42.75 27.86 42.75 27.8645 42.7457 27.8689C42.7457 27.8689 42.7415 27.8779 42.7372 27.8779C42.7372 27.8823 42.733 27.8868 42.7287 27.8912C42.7287 27.8912 42.7287 27.8957 42.7245 27.9001C42.7245 27.9001 42.7245 27.9046 42.7203 27.9091C42.7203 27.9091 42.7203 27.9135 42.716 27.918C42.716 27.9224 42.7118 27.9269 42.7075 27.9313C42.7075 27.9313 42.7075 27.9402 42.7033 27.9402C42.7033 27.9402 42.7033 27.9447 42.699 27.9492V27.9581C42.699 27.9581 42.6906 27.967 42.6863 27.9714C42.6863 27.9714 42.6821 27.9804 42.6778 27.9848C42.6778 27.9848 42.6778 27.9893 42.6736 27.9937V28.0026C42.6736 28.0026 42.6651 28.0071 42.6651 28.0115C42.6651 28.016 42.6608 28.0205 42.6566 28.0249C42.6566 28.0249 42.6566 28.0294 42.6524 28.0338C42.6524 28.0338 42.6524 28.0383 42.6481 28.0427C42.6481 28.0427 42.6481 28.0472 42.6439 28.0517C42.6439 28.0561 42.6396 28.0606 42.6354 28.0695C42.6354 28.0695 42.6354 28.0739 42.6311 28.0784C42.6311 28.0784 42.6311 28.0873 42.6269 28.0873C42.6269 28.0873 42.6269 28.0918 42.6226 28.0962C42.6226 28.1007 42.6184 28.1051 42.6142 28.114L40.1187 32.6593L47.291 45.7247C47.4481 45.9832 47.5542 46.2773 47.5924 46.5981C47.6051 46.7095 47.6093 46.8165 47.6051 46.9279C47.5839 47.5518 47.308 48.1043 46.8751 48.4742C46.5823 48.7282 46.2173 48.8931 45.8056 48.9332C45.8056 48.9332 45.8014 48.9332 45.7972 48.9332C45.7462 48.9376 45.6953 48.9421 45.6444 48.9421H45.6359C45.6359 48.9421 45.6316 48.9421 45.6274 48.9421H54.1833C54.1833 48.9421 54.1875 48.9421 54.1918 48.9421H54.2003C54.2512 48.9421 54.3021 48.9421 54.353 48.9332C54.353 48.9332 54.3573 48.9332 54.3615 48.9332C54.7732 48.8931 55.1382 48.7237 55.431 48.4742C55.8597 48.1043 56.1398 47.5518 56.161 46.9279C56.161 46.8209 56.161 46.7095 56.1483 46.5981L56.0804 46.6605Z" fill="#D1FF79"/>
<path d="M45.5722 49C45.6232 49 45.6741 49 45.725 48.9911C45.725 48.9911 45.7293 48.9911 45.7335 48.9911C46.1452 48.951 46.5101 48.7816 46.803 48.5321C47.2316 48.1622 47.5117 47.6097 47.533 46.9858C47.533 46.8789 47.5329 46.7675 47.5202 46.6561C47.482 46.3352 47.3759 46.0411 47.2189 45.7827L40.0465 32.7172L32.8742 45.7782C32.7044 46.05 32.5983 46.3664 32.5644 46.7095C32.5644 46.7095 32.5644 46.714 32.5644 46.7185C32.5644 46.7185 32.5644 46.7274 32.5644 46.7318C32.5601 46.7942 32.5559 46.8566 32.5559 46.9145C32.5559 46.9145 32.5559 46.919 32.5559 46.9234V46.9323C32.5601 47.5829 32.8487 48.1622 33.2986 48.541C33.5829 48.7816 33.9352 48.9465 34.3341 48.9866C34.3384 48.9866 34.3469 48.9866 34.3511 48.9866C34.4063 48.9911 34.4614 48.9955 34.5166 48.9955C34.5166 48.9955 34.5251 48.9955 34.5294 48.9955C34.5294 48.9955 34.5294 48.9955 34.5336 48.9955H45.5425C45.5425 48.9955 45.5468 48.9955 45.551 48.9955H45.5595L45.5722 49Z" fill="#3D473C"/>
<rect x="11" y="76" width="1259" height="635" rx="5" fill="#1D1D30"/>
<rect x="30.5" y="96.5" width="69" height="27" rx="2.5" stroke="white"/>
<path d="M63.0371 115V106.598H65.7031C66.5156 106.598 67.1582 106.775 67.6309 107.131C68.1074 107.486 68.3457 107.949 68.3457 108.52C68.3457 108.996 68.2109 109.41 67.9414 109.762C67.6719 110.113 67.2988 110.363 66.8223 110.512V110.535C67.4004 110.602 67.8613 110.816 68.2051 111.18C68.5527 111.539 68.7266 112.008 68.7266 112.586C68.7266 113.305 68.4434 113.887 67.877 114.332C67.3105 114.777 66.5957 115 65.7324 115H63.0371ZM64.4258 107.717V110.107H65.3281C65.8125 110.107 66.1914 109.994 66.4648 109.768C66.7422 109.537 66.8809 109.213 66.8809 108.795C66.8809 108.076 66.4004 107.717 65.4395 107.717H64.4258ZM64.4258 111.227V113.887H65.6152C66.1348 113.887 66.5352 113.768 66.8164 113.529C67.1016 113.287 67.2441 112.955 67.2441 112.533C67.2441 111.662 66.6406 111.227 65.4336 111.227H64.4258ZM74.7441 115H73.4258V114.062H73.4023C72.9883 114.781 72.3809 115.141 71.5801 115.141C70.9902 115.141 70.5273 114.98 70.1914 114.66C69.8594 114.34 69.6934 113.916 69.6934 113.389C69.6934 112.256 70.3457 111.596 71.6504 111.408L73.4316 111.156C73.4316 110.301 73.0254 109.873 72.2129 109.873C71.498 109.873 70.8535 110.119 70.2793 110.611V109.422C70.9121 109.047 71.6426 108.859 72.4707 108.859C73.9863 108.859 74.7441 109.605 74.7441 111.098V115ZM73.4316 112.053L72.1719 112.229C71.7812 112.279 71.4863 112.375 71.2871 112.516C71.0918 112.652 70.9941 112.895 70.9941 113.242C70.9941 113.496 71.084 113.705 71.2637 113.869C71.4473 114.029 71.6914 114.109 71.9961 114.109C72.4102 114.109 72.752 113.965 73.0215 113.676C73.2949 113.383 73.4316 113.016 73.4316 112.574V112.053ZM80.7031 114.725C80.2227 115.002 79.6543 115.141 78.998 115.141C78.1074 115.141 77.3887 114.863 76.8418 114.309C76.2949 113.75 76.0215 113.027 76.0215 112.141C76.0215 111.152 76.3145 110.359 76.9004 109.762C77.4902 109.16 78.2773 108.859 79.2617 108.859C79.8086 108.859 80.291 108.955 80.709 109.146V110.412C80.291 110.1 79.8457 109.943 79.373 109.943C78.7988 109.943 78.3281 110.139 77.9609 110.529C77.5938 110.916 77.4102 111.424 77.4102 112.053C77.4102 112.674 77.582 113.164 77.9258 113.523C78.2734 113.883 78.7383 114.062 79.3203 114.062C79.8086 114.062 80.2695 113.889 80.7031 113.541V114.725ZM87.5 115H85.7773L83.4453 112.117H83.4219V115H82.0566V106.117H83.4219V111.748H83.4453L85.6484 109H87.2832L84.8047 111.895L87.5 115Z" fill="white"/>
<path d="M55.739 111.126H44.76L46.8169 113.183C47.4077 113.774 46.5215 114.66 45.9306 114.069L44.0574 112.193L42.8069 110.941C42.5645 110.697 42.5645 110.303 42.8069 110.059L45.9306 106.932C46.0495 106.81 46.2131 106.741 46.3835 106.743C46.9462 106.743 47.2223 107.428 46.8169 107.818L44.7551 109.875H55.7713C56.6378 109.918 56.5731 111.169 55.739 111.126V111.126Z" fill="white"/>
</svg>
